<svg xmlns="http://www.w3.org/2000/svg" xmlns:xlink="http://www.w3.org/1999/xlink" xml:lang="en" height="404.85pt" width="517.748pt" viewBox="-139.6 -341.21000000000004 517.748 404.85"><polygon points="304.248,-297 316.848,-288 304.248,-279 " style="stroke:black;fill:none;stroke-width:2.0;stroke-dasharray:-;stroke-linecap:round;stroke-linejoin:round;" /><path d="M 0.0,-0.0 L 130.548,-0 L 130.548,-306 L 0,-306 L 0,-0" style="stroke:black;fill:none;stroke-width:2.0;stroke-dasharray:-;stroke-linecap:round;stroke-linejoin:round;" /><path d="M 0.0,-153.0 L -18,-153" style="stroke:black;fill:none;stroke-width:2.0;stroke-dasharray:-;stroke-linecap:round;stroke-linejoin:round;" /><path d="M 130.548,-18.0 L 148.548,-18" style="stroke:black;fill:none;stroke-width:2.0;stroke-dasharray:-;stroke-linecap:round;stroke-linejoin:round;" /><path d="M 130.548,-72.0 L 148.548,-72" style="stroke:black;fill:none;stroke-width:2.0;stroke-dasharray:-;stroke-linecap:round;stroke-linejoin:round;" /><path d="M 130.548,-126.0 L 148.548,-126" style="stroke:black;fill:none;stroke-width:2.0;stroke-dasharray:-;stroke-linecap:round;stroke-linejoin:round;" /><path d="M 130.548,-180.0 L 148.548,-180" style="stroke:black;fill:none;stroke-width:2.0;stroke-dasharray:-;stroke-linecap:round;stroke-linejoin:round;" /><path d="M 130.548,-234.0 L 148.548,-234" style="stroke:black;fill:none;stroke-width:2.0;stroke-dasharray:-;stroke-linecap:round;stroke-linejoin:round;" /><path d="M 130.548,-288.0 L 148.548,-288" style="stroke:black;fill:none;stroke-width:2.0;stroke-dasharray:-;stroke-linecap:round;stroke-linejoin:round;" /><path d="M -18.0,-153.0 L -54,-153 M -62.64,-149.4 L -82.8,-136.8 M -90,-153 L -126,-153" style="stroke:black;fill:none;stroke-width:2.0;stroke-dasharray:-;stroke-linecap:round;stroke-linejoin:round;" /><path d="M -126.0,-153.0 L -126,-138.6 L -135,-138.6 L -117,-138.6 M -132.3,-134.28 L -119.7,-134.28 M -127.8,-129.96 L -124.2,-129.96" style="stroke:black;fill:none;stroke-width:2.0;stroke-dasharray:-;stroke-linecap:round;stroke-linejoin:round;" /><path d="M 148.548,-18.0 L 184.548,-18 L 220.548,-18" style="stroke:black;fill:none;stroke-width:2.0;stroke-dasharray:-;stroke-linecap:round;stroke-linejoin:round;" /><path d="M 148.548,-72.0 L 166.548,-72 L 184.548,-72" style="stroke:black;fill:none;stroke-width:2.0;stroke-dasharray:-;stroke-linecap:round;stroke-linejoin:round;" /><path d="M 184.548,-72.0 L 202.548,-72 L 220.548,-72" style="stroke:black;fill:none;stroke-width:2.0;stroke-dasharray:-;stroke-linecap:round;stroke-linejoin:round;" /><path d="M 184.548,-72.0 L 184.548,-36 L 193.548,-33 L 175.548,-27 L 193.548,-21 L 175.548,-15 L 193.548,-9 L 175.548,-3 L 184.548,-0 L 184.548,36" style="stroke:black;fill:none;stroke-width:2.0;stroke-dasharray:-;stroke-linecap:round;stroke-linejoin:round;" /><path d="M 184.54799999999997,36.0 L 184.548,50.4 L 175.548,50.4 L 193.548,50.4 M 178.248,54.72 L 190.848,54.72 M 182.748,59.04 L 186.348,59.04" style="stroke:black;fill:none;stroke-width:2.0;stroke-dasharray:-;stroke-linecap:round;stroke-linejoin:round;" /><path d="M 148.548,-126.0 L 184.548,-126 L 220.548,-126" style="stroke:black;fill:none;stroke-width:2.0;stroke-dasharray:-;stroke-linecap:round;stroke-linejoin:round;" /><path d="M 148.548,-180.0 L 184.548,-180 L 220.548,-180" style="stroke:black;fill:none;stroke-width:2.0;stroke-dasharray:-;stroke-linecap:round;stroke-linejoin:round;" /><path d="M 148.548,-234.0 L 166.548,-234 L 184.548,-234" style="stroke:black;fill:none;stroke-width:2.0;stroke-dasharray:-;stroke-linecap:round;stroke-linejoin:round;" /><path d="M 184.548,-234.0 L 202.548,-234 L 220.548,-234" style="stroke:black;fill:none;stroke-width:2.0;stroke-dasharray:-;stroke-linecap:round;stroke-linejoin:round;" /><path d="M 184.548,-234.0 L 184.548,-219.6 L 175.548,-219.6 L 193.548,-219.6 M 178.248,-215.28 L 190.848,-215.28 M 182.748,-210.96 L 186.348,-210.96" style="stroke:black;fill:none;stroke-width:2.0;stroke-dasharray:-;stroke-linecap:round;stroke-linejoin:round;" /><path d="M 148.548,-288.0 L 184.548,-288 L 187.548,-297 L 193.548,-279 L 199.548,-297 L 205.548,-279 L 211.548,-297 L 217.548,-279 L 220.548,-288 L 256.548,-288" style="stroke:black;fill:none;stroke-width:2.0;stroke-dasharray:-;stroke-linecap:round;stroke-linejoin:round;" /><path d="M 256.548,-288.0 L 304.248,-288 M 316.848,-297 L 316.848,-279 M 316.848,-288 L 364.548,-288" style="stroke:black;fill:none;stroke-width:2.0;stroke-dasharray:-;stroke-linecap:round;stroke-linejoin:round;" /><path d="M 313.248,-301.5 L 318.676,-310.999" style="stroke:black;fill:none;stroke-width:2.0;stroke-dasharray:-;stroke-linecap:round;stroke-linejoin:round;" /><path d="M 321.256 -315.514 L 321.176 -309.57 L 316.175 -312.428 Z" style="stroke:black;fill:black;stroke-linecap:butt;stroke-linejoin:miter;" /><path d="M 305.14799999999997,-301.5 L 310.576,-310.999" style="stroke:black;fill:none;stroke-width:2.0;stroke-dasharray:-;stroke-linecap:round;stroke-linejoin:round;" /><path d="M 313.156 -315.514 L 313.076 -309.57 L 308.075 -312.428 Z" style="stroke:black;fill:black;stroke-linecap:butt;stroke-linejoin:miter;" /><path d="M 364.548,-288.0 L 364.548,-234 L 364.548,-180" style="stroke:black;fill:none;stroke-width:2.0;stroke-dasharray:-;stroke-linecap:round;stroke-linejoin:round;" /><path d="M 364.548,-180.0 L 364.548,-165.6 L 355.548,-165.6 L 373.548,-165.6 M 358.248,-161.28 L 370.848,-161.28 M 362.748,-156.96 L 366.348,-156.96" style="stroke:black;fill:none;stroke-width:2.0;stroke-dasharray:-;stroke-linecap:round;stroke-linejoin:round;" /><text x="-2.6999999999999997" y="-166.70000000000002" dominant-baseline="ideographic" fill="black" font-size="11" font-family="sans" text-anchor="end"><tspan x="-2.6999999999999997" dy="11">1</tspan></text><text x="5.3999999999999995" y="-167.0" dominant-baseline="central" fill="black" font-size="14" font-family="sans" text-anchor="start"><tspan x="5.3999999999999995" dy="14">PS_ON</tspan></text><text x="133.24800000000002" y="-31.7" dominant-baseline="ideographic" fill="black" font-size="11" font-family="sans" text-anchor="start"><tspan x="133.24800000000002" dy="11">2</tspan></text><text x="125.14800000000001" y="-32.0" dominant-baseline="central" fill="black" font-size="14" font-family="sans" text-anchor="end"><tspan x="125.14800000000001" dy="14">+12 V</tspan></text><text x="133.24800000000002" y="-85.7" dominant-baseline="ideographic" fill="black" font-size="11" font-family="sans" text-anchor="start"><tspan x="133.24800000000002" dy="11">3</tspan></text><text x="125.14800000000001" y="-86.0" dominant-baseline="central" fill="black" font-size="14" font-family="sans" text-anchor="end"><tspan x="125.14800000000001" dy="14">+5 V</tspan></text><text x="133.24800000000002" y="-139.70000000000002" dominant-baseline="ideographic" fill="black" font-size="11" font-family="sans" text-anchor="start"><tspan x="133.24800000000002" dy="11">4</tspan></text><text x="125.14800000000001" y="-140.0" dominant-baseline="central" fill="black" font-size="14" font-family="sans" text-anchor="end"><tspan x="125.14800000000001" dy="14">+3.3 V</tspan></text><text x="133.24800000000002" y="-193.70000000000002" dominant-baseline="ideographic" fill="black" font-size="11" font-family="sans" text-anchor="start"><tspan x="133.24800000000002" dy="11">5</tspan></text><text x="125.14800000000001" y="-194.0" dominant-baseline="central" fill="black" font-size="14" font-family="sans" text-anchor="end"><tspan x="125.14800000000001" dy="14">−12 V</tspan></text><text x="133.24800000000002" y="-247.70000000000002" dominant-baseline="ideographic" fill="black" font-size="11" font-family="sans" text-anchor="start"><tspan x="133.24800000000002" dy="11">6</tspan></text><text x="125.14800000000001" y="-248.0" dominant-baseline="central" fill="black" font-size="14" font-family="sans" text-anchor="end"><tspan x="125.14800000000001" dy="14">GND</tspan></text><text x="133.24800000000002" y="-301.7" dominant-baseline="ideographic" fill="black" font-size="11" font-family="sans" text-anchor="start"><tspan x="133.24800000000002" dy="11">7</tspan></text><text x="125.14800000000001" y="-302.0" dominant-baseline="central" fill="black" font-size="14" font-family="sans" text-anchor="end"><tspan x="125.14800000000001" dy="14">PWR_OK</tspan></text><text x="68.87400000000001" y="-166.6" dominant-baseline="central" fill="black" font-size="10" font-family="sans" text-anchor="middle"><tspan x="68.87400000000001" dy="10">ATX PSU</tspan></text><circle cx="-58.32" cy="-153" r="4.32" style="stroke:black;fill:white;stroke-width:2.0;stroke-dasharray:-;" /><circle cx="-85.68" cy="-153" r="4.32" style="stroke:black;fill:white;stroke-width:2.0;stroke-dasharray:-;" /><text x="-72.0" y="-170.92000000000002" dominant-baseline="ideographic" fill="black" font-size="10" font-family="sans" text-anchor="middle"><tspan x="-72.0" dy="10">toggle SW</tspan></text><text x="224.14799999999997" y="-28.0" dominant-baseline="central" fill="black" font-size="10" font-family="sans" text-anchor="start"><tspan x="224.14799999999997" dy="10">+12 V post</tspan></text><text x="224.14799999999997" y="-82.0" dominant-baseline="central" fill="black" font-size="10" font-family="sans" text-anchor="start"><tspan x="224.14799999999997" dy="10">+5 V post</tspan></text><text x="184.548" y="-95.60000000000001" dominant-baseline="ideographic" fill="black" font-size="10" font-family="sans" text-anchor="middle"><tspan x="184.548" dy="10">10–47 Ω</tspan><tspan x="184.548" dy="10">10 W</tspan></text><text x="224.14799999999997" y="-136.0" dominant-baseline="central" fill="black" font-size="10" font-family="sans" text-anchor="start"><tspan x="224.14799999999997" dy="10">+3.3 V post</tspan></text><text x="224.14799999999997" y="-190.0" dominant-baseline="central" fill="black" font-size="10" font-family="sans" text-anchor="start"><tspan x="224.14799999999997" dy="10">−12 V post</tspan></text><text x="224.14799999999997" y="-244.0" dominant-baseline="central" fill="black" font-size="10" font-family="sans" text-anchor="start"><tspan x="224.14799999999997" dy="10">GND posts</tspan></text><text x="202.548" y="-310.59999999999997" dominant-baseline="ideographic" fill="black" font-size="10" font-family="sans" text-anchor="middle"><tspan x="202.548" dy="10">470 Ω</tspan></text><text x="310.548" y="-336.61" dominant-baseline="ideographic" fill="black" font-size="10" font-family="sans" text-anchor="middle"><tspan x="310.548" dy="10">PWR LED (opt.)</tspan></text><circle cx="184.548" cy="-72" r="2.7" style="stroke:black;fill:black;stroke-width:2.0;stroke-dasharray:-;" /><circle cx="184.548" cy="-234" r="2.7" style="stroke:black;fill:black;stroke-width:2.0;stroke-dasharray:-;" /></svg>