<?xml version="1.0" encoding="utf-8" standalone="no"?>
<!DOCTYPE svg PUBLIC "-//W3C//DTD SVG 1.1//EN"
  "http://www.w3.org/Graphics/SVG/1.1/DTD/svg11.dtd">
<svg xmlns:xlink="http://www.w3.org/1999/xlink" width="427.005pt" height="166.56pt" viewBox="0 0 427.005 166.56" xmlns="http://www.w3.org/2000/svg" version="1.1">
 <metadata>
  <rdf:RDF xmlns:dc="http://purl.org/dc/elements/1.1/" xmlns:cc="http://creativecommons.org/ns#" xmlns:rdf="http://www.w3.org/1999/02/22-rdf-syntax-ns#">
   <cc:Work>
    <dc:type rdf:resource="http://purl.org/dc/dcmitype/StillImage"/>
    <dc:date>2026-06-02T17:29:19.623793</dc:date>
    <dc:format>image/svg+xml</dc:format>
    <dc:creator>
     <cc:Agent>
      <dc:title>Matplotlib v3.10.9, https://matplotlib.org/</dc:title>
     </cc:Agent>
    </dc:creator>
   </cc:Work>
  </rdf:RDF>
 </metadata>
 <defs>
  <style type="text/css">*{stroke-linejoin: round; stroke-linecap: butt}</style>
 </defs>
 <g id="figure_1">
  <g id="patch_1">
   <path d="M 0 166.56 
L 1 166.591436 
L 2 166.628377 
L 3 166.726123 
L 4 166.758645 
L 5 166.83227 
L 6 166.870835 
L 7 166.906248 
L 8 166.963888 
L 9 167.034274 
L 10 167.086239 
L 11 167.145328 
L 12 167.233649 
L 13 167.279794 
L 14 167.322205 
L 15 167.352697 
L 16 167.378742 
L 17 167.399942 
L 18 167.454243 
L 19 167.482181 
L 20 167.511905 
L 21 167.5373 
L 22 167.5485 
L 23 167.558624 
L 24 167.55842 
L 25 167.54891 
L 26 167.537256 
L 27 167.506227 
L 28 167.495059 
L 29 167.464942 
L 30 167.405165 
L 31 167.367973 
L 32 167.328877 
L 33 167.286437 
L 34 167.253672 
L 35 167.186246 
L 36 167.14712 
L 37 167.104445 
L 38 167.033865 
L 39 166.997474 
L 40 166.939071 
L 41 166.828118 
L 42 166.75746 
L 43 166.64452 
L 44 166.598747 
L 45 166.537464 
L 46 166.488965 
L 47 166.408142 
L 48 166.289623 
L 49 166.219412 
L 50 166.13615 
L 51 166.103008 
L 52 166.051771 
L 53 165.983372 
L 54 165.917157 
L 55 165.84024 
L 56 165.812924 
L 57 165.786447 
L 58 165.763796 
L 59 165.744265 
L 60 165.717871 
L 61 165.6681 
L 62 165.633027 
L 63 165.597161 
L 64 165.581794 
L 65 165.566025 
L 66 165.562612 
L 67 165.560195 
L 68 165.560681 
L 69 165.56261 
L 70 165.575867 
L 71 165.584258 
L 72 165.605794 
L 73 165.628827 
L 74 165.64606 
L 75 165.664523 
L 76 165.684975 
L 77 165.701575 
L 78 165.764354 
L 79 165.839619 
L 80 165.872258 
L 81 165.939822 
L 82 165.993869 
L 83 166.027573 
L 84 166.117699 
L 85 166.146234 
L 86 166.17772 
L 87 166.208731 
L 88 166.263539 
L 89 166.328126 
L 90 166.366322 
L 91 166.462256 
L 92 166.511514 
L 93 166.555583 
L 94 166.595707 
L 95 166.704074 
L 96 166.745702 
L 97 166.807844 
L 98 166.877806 
L 99 166.98231 
L 100 167.019298 
L 101 167.065175 
L 102 167.13367 
L 103 167.182416 
L 104 167.260013 
L 105 167.290554 
L 106 167.360068 
L 107 167.384041 
L 108 167.412663 
L 109 167.454456 
L 110 167.476032 
L 111 167.48998 
L 112 167.516702 
L 113 167.526012 
L 114 167.538459 
L 115 167.549514 
L 116 167.555178 
L 117 167.559942 
L 118 167.554394 
L 119 167.541106 
L 120 167.533589 
L 121 167.508804 
L 122 167.485235 
L 123 167.449055 
L 124 167.423093 
L 125 167.400771 
L 126 167.332011 
L 127 167.257476 
L 128 167.163497 
L 129 167.112445 
L 130 167.058511 
L 131 167.02326 
L 132 166.917172 
L 133 166.864908 
L 134 166.828001 
L 135 166.79697 
L 136 166.735815 
L 137 166.668395 
L 138 166.619489 
L 139 166.554297 
L 140 166.516109 
L 141 166.474113 
L 142 166.432096 
L 143 166.37258 
L 144 166.25942 
L 145 166.207169 
L 146 166.167751 
L 147 166.12065 
L 148 166.06387 
L 149 166.031207 
L 150 165.995029 
L 151 165.962939 
L 152 165.928659 
L 153 165.870281 
L 154 165.825096 
L 155 165.795472 
L 156 165.745086 
L 157 165.719889 
L 158 165.698838 
L 159 165.66387 
L 160 165.63958 
L 161 165.625513 
L 162 165.606571 
L 163 165.59091 
L 164 165.578358 
L 165 165.572522 
L 166 165.56564 
L 167 165.560466 
L 168 165.562249 
L 169 165.564974 
L 170 165.576128 
L 171 165.604363 
L 172 165.648151 
L 173 165.66884 
L 174 165.709813 
L 175 165.749888 
L 176 165.768998 
L 177 165.791507 
L 178 165.858158 
L 179 165.907868 
L 180 165.981574 
L 181 166.012888 
L 182 166.08951 
L 183 166.127808 
L 184 166.201925 
L 185 166.305983 
L 186 166.375814 
L 187 166.481048 
L 188 166.536063 
L 189 166.659538 
L 190 166.730097 
L 191 166.845936 
L 192 166.896117 
L 193 166.931721 
L 194 167.023128 
L 195 167.076636 
L 196 167.164544 
L 197 167.233729 
L 198 167.280493 
L 199 167.352537 
L 200 167.402679 
L 201 167.420069 
L 202 167.447072 
L 203 167.466499 
L 204 167.485837 
L 205 167.524086 
L 206 167.540519 
L 207 167.548888 
L 208 167.553207 
L 209 167.559762 
L 210 167.557216 
L 211 167.551757 
L 212 167.535329 
L 213 167.503394 
L 214 167.465414 
L 215 167.43061 
L 216 167.367538 
L 217 167.346111 
L 218 167.295493 
L 219 167.270536 
L 220 167.214902 
L 221 167.183673 
L 222 167.133529 
L 223 167.101036 
L 224 167.020624 
L 225 166.951698 
L 226 166.836001 
L 227 166.760522 
L 228 166.644997 
L 229 166.565513 
L 230 166.457072 
L 231 166.417704 
L 232 166.314836 
L 233 166.215038 
L 234 166.169541 
L 235 166.135219 
L 236 166.083263 
L 237 166.043616 
L 238 166.008102 
L 239 165.940457 
L 240 165.901375 
L 241 165.850894 
L 242 165.801588 
L 243 165.750518 
L 244 165.706279 
L 245 165.684259 
L 246 165.668703 
L 247 165.626256 
L 248 165.611388 
L 249 165.58866 
L 250 165.568344 
L 251 165.562547 
L 252 165.560065 
L 253 165.563122 
L 254 165.574718 
L 255 165.591638 
L 256 165.623299 
L 257 165.637382 
L 258 165.690054 
L 259 165.739143 
L 260 165.793844 
L 261 165.838192 
L 262 165.908184 
L 263 165.958567 
L 264 166.012474 
L 265 166.081913 
L 266 166.139301 
L 267 166.189466 
L 268 166.266628 
L 269 166.324818 
L 270 166.385456 
L 271 166.422657 
L 272 166.487749 
L 273 166.592879 
L 274 166.653181 
L 275 166.749503 
L 276 166.781506 
L 277 166.832523 
L 278 166.949315 
L 279 166.984762 
L 280 167.040642 
L 281 167.071018 
L 282 167.159404 
L 283 167.204168 
L 284 167.285056 
L 285 167.345202 
L 286 167.408288 
L 287 167.431236 
L 288 167.447406 
L 289 167.476335 
L 290 167.506687 
L 291 167.519261 
L 292 167.54414 
L 293 167.556224 
L 294 167.559986 
L 295 167.55555 
L 296 167.543211 
L 297 167.528798 
L 298 167.512725 
L 299 167.477204 
L 300 167.45727 
L 301 167.400681 
L 302 167.333487 
L 303 167.306117 
L 304 167.271969 
L 305 167.223289 
L 306 167.175004 
L 307 167.115927 
L 308 167.020322 
L 309 166.977182 
L 310 166.927334 
L 311 166.8688 
L 312 166.821214 
L 313 166.760086 
L 314 166.704001 
L 315 166.62983 
L 316 166.512592 
L 317 166.456868 
L 318 166.348642 
L 319 166.242492 
L 320 166.13492 
L 321 166.100412 
L 322 165.997105 
L 323 165.921381 
L 324 165.881946 
L 325 165.842562 
L 326 165.82008 
L 327 165.764267 
L 328 165.738215 
L 329 165.70798 
L 330 165.657209 
L 331 165.638558 
L 332 165.616849 
L 333 165.604203 
L 334 165.58521 
L 335 165.56782 
L 336 165.560782 
L 337 165.561806 
L 338 165.56881 
L 339 165.57818 
L 340 165.601578 
L 341 165.626661 
L 342 165.63906 
L 343 165.672153 
L 344 165.68852 
L 345 165.706925 
L 346 165.756062 
L 347 165.799875 
L 348 165.84296 
L 349 165.865901 
L 350 165.906164 
L 351 165.991024 
L 352 166.033416 
L 353 166.097802 
L 354 166.142091 
L 355 166.249937 
L 356 166.326877 
L 357 166.363319 
L 358 166.418206 
L 359 166.493307 
L 360 166.551902 
L 361 166.588477 
L 362 166.700524 
L 363 166.762209 
L 364 166.812729 
L 365 166.911514 
L 366 166.949536 
L 367 166.984984 
L 368 167.076618 
L 369 167.11989 
L 370 167.173219 
L 371 167.206084 
L 372 167.268978 
L 373 167.322832 
L 374 167.379958 
L 375 167.402048 
L 376 167.445787 
L 377 167.492881 
L 378 167.509728 
L 379 167.537802 
L 380 167.548798 
L 381 167.553367 
L 382 167.559015 
L 383 167.559066 
L 384 167.555976 
L 385 167.552463 
L 386 167.546641 
L 387 167.533789 
L 388 167.510164 
L 389 167.49528 
L 390 167.471708 
L 391 167.435389 
L 392 167.403806 
L 393 167.373913 
L 394 167.295221 
L 395 167.25867 
L 396 167.232947 
L 397 167.162274 
L 398 167.071172 
L 399 167.009215 
L 400 166.975602 
L 401 166.941102 
L 402 166.843662 
L 403 166.796072 
L 404 166.764566 
L 405 166.720881 
L 406 166.650712 
L 407 166.600845 
L 408 166.566168 
L 409 166.45652 
L 410 166.423049 
L 411 166.385707 
L 412 166.305462 
L 413 166.266968 
L 414 166.225191 
L 415 166.182766 
L 416 166.073038 
L 417 165.984753 
L 418 165.910107 
L 419 165.82165 
L 420 165.747588 
L 421 165.698423 
L 422 165.642806 
L 423 165.608106 
L 424 165.596235 
L 425 165.574012 
L 426 165.562033 
L 427.005 165.560281 
L 426.010698 165.56 
L 426.026896 164.56 
L 426.043396 163.56 
L 426.074579 162.56 
L 426.087944 161.56 
L 426.117587 160.56 
L 426.18061 159.56 
L 426.229931 158.56 
L 426.27602 157.56 
L 426.358247 156.56 
L 426.40415 155.56 
L 426.438475 154.56 
L 426.492014 153.56 
L 426.580901 152.56 
L 426.612039 151.56 
L 426.720088 150.56 
L 426.83216 149.56 
L 426.867598 148.56 
L 426.952384 147.56 
L 427.017991 146.56 
L 427.120045 145.56 
L 427.23626 144.56 
L 427.276951 143.56 
L 427.31804 142.56 
L 427.354681 141.56 
L 427.395677 140.56 
L 427.471746 139.56 
L 427.547812 138.56 
L 427.5785 137.56 
L 427.604991 136.56 
L 427.661572 135.56 
L 427.706088 134.56 
L 427.736106 133.56 
L 427.763162 132.56 
L 427.805727 131.56 
L 427.858592 130.56 
L 427.889513 129.56 
L 427.915788 128.56 
L 427.930721 127.56 
L 427.96101 126.56 
L 427.982339 125.56 
L 427.999228 124.56 
L 428.003943 123.56 
L 428.004553 122.56 
L 428.002507 121.56 
L 427.996646 120.56 
L 427.977999 119.56 
L 427.945942 118.56 
L 427.899502 117.56 
L 427.857556 116.56 
L 427.790851 115.56 
L 427.721785 114.56 
L 427.67441 113.56 
L 427.622891 112.56 
L 427.583191 111.56 
L 427.513771 110.56 
L 427.44724 109.56 
L 427.338331 108.56 
L 427.273083 107.56 
L 427.164875 106.56 
L 427.103871 105.56 
L 427.055186 104.56 
L 426.978952 103.56 
L 426.919421 102.56 
L 426.844793 101.56 
L 426.725966 100.56 
L 426.628021 99.56 
L 426.548973 98.56 
L 426.503226 97.56 
L 426.475954 96.56 
L 426.432292 95.56 
L 426.383708 94.56 
L 426.351974 93.56 
L 426.271744 92.56 
L 426.205251 91.56 
L 426.181226 90.56 
L 426.120727 89.56 
L 426.098495 88.56 
L 426.079895 87.56 
L 426.050569 86.56 
L 426.034868 85.56 
L 426.026569 84.56 
L 426.016333 83.56 
L 426.00599 82.56 
L 426.006668 81.56 
L 426.010448 80.56 
L 426.026889 79.56 
L 426.039023 78.56 
L 426.049618 77.56 
L 426.080995 76.56 
L 426.106768 75.56 
L 426.138177 74.56 
L 426.160986 73.56 
L 426.17858 72.56 
L 426.228392 71.56 
L 426.276052 70.56 
L 426.347761 69.56 
L 426.403524 68.56 
L 426.429722 67.56 
L 426.46049 66.56 
L 426.550248 65.56 
L 426.635042 64.56 
L 426.700636 63.56 
L 426.746461 62.56 
L 426.789458 61.56 
L 426.850971 60.56 
L 426.950796 59.56 
L 426.995226 58.56 
L 427.045276 57.56 
L 427.167117 56.56 
L 427.22681 55.56 
L 427.258376 54.56 
L 427.290719 53.56 
L 427.345279 52.56 
L 427.387779 51.56 
L 427.439251 50.56 
L 427.527636 49.56 
L 427.561833 48.56 
L 427.605767 47.56 
L 427.66948 46.56 
L 427.744677 45.56 
L 427.773491 44.56 
L 427.815695 43.56 
L 427.85828 42.56 
L 427.875172 41.56 
L 427.897653 40.56 
L 427.93999 39.56 
L 427.96995 38.56 
L 427.988583 37.56 
L 427.998375 36.56 
L 428.002138 35.56 
L 428.004976 34.56 
L 428.003227 33.56 
L 427.993871 32.56 
L 427.983174 31.56 
L 427.973304 30.56 
L 427.954446 29.56 
L 427.924107 28.56 
L 427.885716 27.56 
L 427.82623 26.56 
L 427.782941 25.56 
L 427.722203 24.56 
L 427.638129 23.56 
L 427.589836 22.56 
L 427.546259 21.56 
L 427.519378 20.56 
L 427.487448 19.56 
L 427.420256 18.56 
L 427.339435 17.56 
L 427.26389 16.56 
L 427.22016 15.56 
L 427.140265 14.56 
L 427.078786 13.56 
L 427.015161 12.56 
L 426.907912 11.56 
L 426.789202 10.56 
L 426.747296 9.56 
L 426.704342 8.56 
L 426.642143 7.56 
L 426.612006 6.56 
L 426.579488 5.56 
L 426.527553 4.56 
L 426.422003 3.56 
L 426.373557 2.56 
L 426.327233 1.56 
L 426.293417 0 
L 426.005 0.75946 
L 425.005 0.814338 
L 424.005 0.838249 
L 423.005 0.864286 
L 422.005 0.920403 
L 421.005 0.934277 
L 420.005 0.960311 
L 419.005 0.987057 
L 418.005 0.994803 
L 417.005 0.999956 
L 416.005 0.993758 
L 415.005 0.987451 
L 414.005 0.97987 
L 413.005 0.952364 
L 412.005 0.908131 
L 411.005 0.878593 
L 410.005 0.836746 
L 409.005 0.777572 
L 408.005 0.754862 
L 407.005 0.71823 
L 406.005 0.661442 
L 405.005 0.636272 
L 404.005 0.553576 
L 403.005 0.466644 
L 402.005 0.41596 
L 401.005 0.378566 
L 400.005 0.294186 
L 399.005 0.259675 
L 398.005 0.167684 
L 397.005 0.080659 
L 396.005 -0.042481 
L 395.005 -0.08035 
L 394.005 -0.127825 
L 393.005 -0.233351 
L 392.005 -0.330812 
L 391.005 -0.407449 
L 390.005 -0.439376 
L 389.005 -0.493616 
L 388.005 -0.532467 
L 387.005 -0.606172 
L 386.005 -0.638168 
L 385.005 -0.694707 
L 384.005 -0.730823 
L 383.005 -0.799425 
L 382.005 -0.830841 
L 381.005 -0.885508 
L 380.005 -0.904279 
L 379.005 -0.949908 
L 378.005 -0.972811 
L 377.005 -0.981352 
L 376.005 -0.988693 
L 375.005 -0.994988 
L 374.005 -0.998165 
L 373.005 -0.999751 
L 372.005 -0.998288 
L 371.005 -0.985334 
L 370.005 -0.970712 
L 369.005 -0.958856 
L 368.005 -0.940831 
L 367.005 -0.920453 
L 366.005 -0.897054 
L 365.005 -0.882145 
L 364.005 -0.827431 
L 363.005 -0.793834 
L 362.005 -0.731138 
L 361.005 -0.703763 
L 360.005 -0.659783 
L 359.005 -0.580836 
L 358.005 -0.523308 
L 357.005 -0.473329 
L 356.005 -0.401345 
L 355.005 -0.364813 
L 354.005 -0.2965 
L 353.005 -0.208294 
L 352.005 -0.086947 
L 351.005 -0.021266 
L 350.005 0.012352 
L 349.005 0.076629 
L 348.005 0.1226 
L 347.005 0.194757 
L 346.005 0.234583 
L 345.005 0.277213 
L 344.005 0.383172 
L 343.005 0.435957 
L 342.005 0.515234 
L 341.005 0.557638 
L 340.005 0.589904 
L 339.005 0.62477 
L 338.005 0.667428 
L 337.005 0.699001 
L 336.005 0.76658 
L 335.005 0.803465 
L 334.005 0.831421 
L 333.005 0.852269 
L 332.005 0.877882 
L 331.005 0.9155 
L 330.005 0.930342 
L 329.005 0.955072 
L 328.005 0.973302 
L 327.005 0.984709 
L 326.005 0.990344 
L 325.005 0.995098 
L 324.005 0.999707 
L 323.005 0.998034 
L 322.005 0.992252 
L 321.005 0.972256 
L 320.005 0.960604 
L 319.005 0.949615 
L 318.005 0.936648 
L 317.005 0.886234 
L 316.005 0.865412 
L 315.005 0.837465 
L 314.005 0.78072 
L 313.005 0.758076 
L 312.005 0.706673 
L 311.005 0.665537 
L 310.005 0.582768 
L 309.005 0.534308 
L 308.005 0.482881 
L 307.005 0.431721 
L 306.005 0.364422 
L 305.005 0.331268 
L 304.005 0.26521 
L 303.005 0.209025 
L 302.005 0.147746 
L 301.005 0.107763 
L 300.005 0.01134 
L 299.005 -0.10042 
L 298.005 -0.139339 
L 297.005 -0.237188 
L 296.005 -0.271842 
L 295.005 -0.355524 
L 294.005 -0.40603 
L 293.005 -0.475073 
L 292.005 -0.576176 
L 291.005 -0.628622 
L 290.005 -0.71793 
L 289.005 -0.782938 
L 288.005 -0.824483 
L 287.005 -0.866823 
L 286.005 -0.888843 
L 285.005 -0.92633 
L 284.005 -0.943582 
L 283.005 -0.96699 
L 282.005 -0.975557 
L 281.005 -0.984646 
L 280.005 -0.991714 
L 279.005 -0.998741 
L 278.005 -0.999849 
L 277.005 -0.999863 
L 276.005 -0.997189 
L 275.005 -0.994163 
L 274.005 -0.988696 
L 273.005 -0.968701 
L 272.005 -0.95673 
L 271.005 -0.929611 
L 270.005 -0.902599 
L 269.005 -0.875433 
L 268.005 -0.820958 
L 267.005 -0.791342 
L 266.005 -0.749586 
L 265.005 -0.676477 
L 264.005 -0.633039 
L 263.005 -0.562348 
L 262.005 -0.523941 
L 261.005 -0.463602 
L 260.005 -0.432847 
L 259.005 -0.402349 
L 258.005 -0.343439 
L 257.005 -0.300262 
L 256.005 -0.25865 
L 255.005 -0.209535 
L 254.005 -0.144448 
L 253.005 -0.078053 
L 252.005 0.04671 
L 251.005 0.090525 
L 250.005 0.144853 
L 249.005 0.251557 
L 248.005 0.294057 
L 247.005 0.331551 
L 246.005 0.421047 
L 245.005 0.47827 
L 244.005 0.547913 
L 243.005 0.596932 
L 242.005 0.652877 
L 241.005 0.700002 
L 240.005 0.73889 
L 239.005 0.792582 
L 238.005 0.838153 
L 237.005 0.87509 
L 236.005 0.897166 
L 235.005 0.930049 
L 234.005 0.959769 
L 233.005 0.972319 
L 232.005 0.984218 
L 231.005 0.989336 
L 230.005 0.997225 
L 229.005 0.999856 
L 228.005 0.999058 
L 227.005 0.995817 
L 226.005 0.980679 
L 225.005 0.973742 
L 224.005 0.957365 
L 223.005 0.938952 
L 222.005 0.90936 
L 221.005 0.887278 
L 220.005 0.829584 
L 219.005 0.804393 
L 218.005 0.73608 
L 217.005 0.688954 
L 216.005 0.651606 
L 215.005 0.596397 
L 214.005 0.506966 
L 213.005 0.403856 
L 212.005 0.349882 
L 211.005 0.319162 
L 210.005 0.263621 
L 209.005 0.225886 
L 208.005 0.157632 
L 207.005 0.121803 
L 206.005 0.052019 
L 205.005 -0.007275 
L 204.005 -0.045882 
L 203.005 -0.079878 
L 202.005 -0.122458 
L 201.005 -0.169107 
L 200.005 -0.223673 
L 199.005 -0.309574 
L 198.005 -0.35625 
L 197.005 -0.413565 
L 196.005 -0.443979 
L 195.005 -0.52903 
L 194.005 -0.562705 
L 193.005 -0.650629 
L 192.005 -0.705614 
L 191.005 -0.744303 
L 190.005 -0.814334 
L 189.005 -0.84478 
L 188.005 -0.902505 
L 187.005 -0.919649 
L 186.005 -0.944384 
L 185.005 -0.959884 
L 184.005 -0.983336 
L 183.005 -0.99015 
L 182.005 -0.994083 
L 181.005 -0.997815 
L 180.005 -0.999848 
L 179.005 -0.991462 
L 178.005 -0.975076 
L 177.005 -0.948806 
L 176.005 -0.935477 
L 175.005 -0.905523 
L 174.005 -0.871272 
L 173.005 -0.850602 
L 172.005 -0.80959 
L 171.005 -0.736272 
L 170.005 -0.713054 
L 169.005 -0.672688 
L 168.005 -0.645437 
L 167.005 -0.564899 
L 166.005 -0.511421 
L 165.005 -0.43285 
L 164.005 -0.384382 
L 163.005 -0.270352 
L 162.005 -0.169667 
L 161.005 -0.085243 
L 160.005 0.006297 
L 159.005 0.10871 
L 158.005 0.149518 
L 157.005 0.192661 
L 156.005 0.231962 
L 155.005 0.265385 
L 154.005 0.308493 
L 153.005 0.414072 
L 152.005 0.469773 
L 151.005 0.5751 
L 150.005 0.672097 
L 149.005 0.695117 
L 148.005 0.722104 
L 147.005 0.752205 
L 146.005 0.825447 
L 145.005 0.862839 
L 144.005 0.897798 
L 143.005 0.916374 
L 142.005 0.94688 
L 141.005 0.959092 
L 140.005 0.968868 
L 139.005 0.978437 
L 138.005 0.986646 
L 137.005 0.997922 
L 136.005 0.999784 
L 135.005 0.993482 
L 134.005 0.987469 
L 133.005 0.982012 
L 132.005 0.96182 
L 131.005 0.951931 
L 130.005 0.924178 
L 129.005 0.905171 
L 128.005 0.889772 
L 127.005 0.860507 
L 126.005 0.796703 
L 125.005 0.74765 
L 124.005 0.677461 
L 123.005 0.648352 
L 122.005 0.588782 
L 121.005 0.541833 
L 120.005 0.490711 
L 119.005 0.436658 
L 118.005 0.354971 
L 117.005 0.276314 
L 116.005 0.239654 
L 115.005 0.118 
L 114.005 0.039058 
L 113.005 -0.025433 
L 112.005 -0.071061 
L 111.005 -0.18671 
L 110.005 -0.234985 
L 109.005 -0.270508 
L 108.005 -0.314086 
L 107.005 -0.349862 
L 106.005 -0.420687 
L 105.005 -0.457091 
L 104.005 -0.554567 
L 103.005 -0.623631 
L 102.005 -0.689597 
L 101.005 -0.754127 
L 100.005 -0.777549 
L 99.005 -0.804954 
L 98.005 -0.853448 
L 97.005 -0.883441 
L 96.005 -0.915979 
L 95.005 -0.930722 
L 94.005 -0.944262 
L 93.005 -0.967697 
L 92.005 -0.980177 
L 91.005 -0.987315 
L 90.005 -0.992913 
L 89.005 -0.998519 
L 88.005 -1 
L 87.005 -0.994007 
L 86.005 -0.988042 
L 85.005 -0.97653 
L 84.005 -0.952723 
L 83.005 -0.94259 
L 82.005 -0.900632 
L 81.005 -0.85856 
L 80.005 -0.827344 
L 79.005 -0.757486 
L 78.005 -0.71323 
L 77.005 -0.63076 
L 76.005 -0.542573 
L 75.005 -0.497653 
L 74.005 -0.401923 
L 73.005 -0.329819 
L 72.005 -0.234829 
L 71.005 -0.178455 
L 70.005 -0.134258 
L 69.005 -0.078442 
L 68.005 -0.038504 
L 67.005 0.036947 
L 66.005 0.094942 
L 65.005 0.132129 
L 64.005 0.190656 
L 63.005 0.293433 
L 62.005 0.35016 
L 61.005 0.421165 
L 60.005 0.482934 
L 59.005 0.520397 
L 58.005 0.555683 
L 57.005 0.599101 
L 56.005 0.64096 
L 55.005 0.668583 
L 54.005 0.719698 
L 53.005 0.753234 
L 52.005 0.815297 
L 51.005 0.834939 
L 50.005 0.896712 
L 49.005 0.919191 
L 48.005 0.939414 
L 47.005 0.960103 
L 46.005 0.98653 
L 45.005 0.997487 
L 44.005 0.999269 
L 43.005 0.996641 
L 42.005 0.990091 
L 41.005 0.968128 
L 40.005 0.929128 
L 39.005 0.908845 
L 38.005 0.892196 
L 37.005 0.830573 
L 36.005 0.801989 
L 35.005 0.778481 
L 34.005 0.734033 
L 33.005 0.70807 
L 32.005 0.65771 
L 31.005 0.581318 
L 30.005 0.553797 
L 29.005 0.521939 
L 28.005 0.486315 
L 27.005 0.398542 
L 26.005 0.301531 
L 25.005 0.221578 
L 24.005 0.103903 
L 23.005 0.031909 
L 22.005 -0.072257 
L 21.005 -0.183566 
L 20.005 -0.278988 
L 19.005 -0.373885 
L 18.005 -0.440904 
L 17.005 -0.501789 
L 16.005 -0.54625 
L 15.005 -0.581921 
L 14.005 -0.661217 
L 13.005 -0.691472 
L 12.005 -0.765116 
L 11.005 -0.797561 
L 10.005 -0.842088 
L 9.005 -0.863344 
L 8.005 -0.891696 
L 7.005 -0.920022 
L 6.005 -0.954355 
L 5.005 -0.967671 
L 4.005 -0.984463 
L 3.005 -0.995007 
L 2.005 -0.998126 
L 1.005 -0.999962 
L 0 -0.994973 
L -0.989525 1 
L -0.97538 2 
L -0.940746 3 
L -0.921719 4 
L -0.879119 5 
L -0.861014 6 
L -0.816611 7 
L -0.794181 8 
L -0.753913 9 
L -0.721408 10 
L -0.658097 11 
L -0.569587 12 
L -0.483117 13 
L -0.403482 14 
L -0.349696 15 
L -0.289585 16 
L -0.218544 17 
L -0.098423 18 
L 0.006039 19 
L 0.116842 20 
L 0.170115 21 
L 0.243365 22 
L 0.281948 23 
L 0.357711 24 
L 0.435272 25 
L 0.521412 26 
L 0.548855 27 
L 0.644831 28 
L 0.720941 29 
L 0.771105 30 
L 0.825458 31 
L 0.853129 32 
L 0.889151 33 
L 0.920712 34 
L 0.938819 35 
L 0.955558 36 
L 0.972565 37 
L 0.989619 38 
L 0.99403 39 
L 0.998289 40 
L 0.999886 41 
L 0.998359 42 
L 0.995935 43 
L 0.992476 44 
L 0.982211 45 
L 0.962483 46 
L 0.950784 47 
L 0.90804 48 
L 0.88236 49 
L 0.838178 50 
L 0.782063 51 
L 0.725365 52 
L 0.693505 53 
L 0.656796 54 
L 0.628663 55 
L 0.572864 56 
L 0.538147 57 
L 0.46646 58 
L 0.410402 59 
L 0.328747 60 
L 0.273173 61 
L 0.188865 62 
L 0.14624 63 
L 0.055234 64 
L -0.005051 65 
L -0.110128 66 
L -0.174313 67 
L -0.253509 68 
L -0.319736 69 
L -0.374012 70 
L -0.407139 71 
L -0.463853 72 
L -0.50741 73 
L -0.604653 74 
L -0.678599 75 
L -0.740393 76 
L -0.768808 77 
L -0.794142 78 
L -0.860397 79 
L -0.903414 80 
L -0.931921 81 
L -0.943915 82 
L -0.957989 83 
L -0.968817 84 
L -0.984115 85 
L -0.993971 86 
L -0.999784 87 
L -0.998949 88 
L -0.996987 89 
L -0.993379 90 
L -0.976068 91 
L -0.966337 92 
L -0.932307 93 
L -0.907236 94 
L -0.868539 95 
L -0.802605 96 
L -0.761617 97 
L -0.686776 98 
L -0.654849 99 
L -0.630635 100 
L -0.604815 101 
L -0.545775 102 
L -0.491063 103 
L -0.384861 104 
L -0.304585 105 
L -0.187843 106 
L -0.08788 107 
L -0.035566 108 
L 0.003007 109 
L 0.039368 110 
L 0.160354 111 
L 0.191539 112 
L 0.227915 113 
L 0.290066 114 
L 0.378077 115 
L 0.42247 116 
L 0.470988 117 
L 0.569778 118 
L 0.611246 119 
L 0.653898 120 
L 0.718748 121 
L 0.785183 122 
L 0.805272 123 
L 0.829751 124 
L 0.870359 125 
L 0.894905 126 
L 0.911852 127 
L 0.942871 128 
L 0.965923 129 
L 0.985366 130 
L 0.992773 131 
L 0.996995 132 
L 0.999656 133 
L 0.999239 134 
L 0.993894 135 
L 0.984738 136 
L 0.972213 137 
L 0.945446 138 
L 0.91655 139 
L 0.86624 140 
L 0.837897 141 
L 0.782994 142 
L 0.745187 143 
L 0.692498 144 
L 0.662794 145 
L 0.631793 146 
L 0.601321 147 
L 0.559084 148 
L 0.531062 149 
L 0.433515 150 
L 0.35707 151 
L 0.301773 152 
L 0.220903 153 
L 0.143522 154 
L 0.062112 155 
L 0.005147 156 
L -0.117966 157 
L -0.149535 158 
L -0.216766 159 
L -0.295058 160 
L -0.387611 161 
L -0.421765 162 
L -0.452679 163 
L -0.503004 164 
L -0.547822 165 
L -0.588823 166.56 
L 0 166.56 
z
" style="fill: none"/>
  </g>
  <g id="axes_1">
   <g id="patch_2">
    <path d="M 153.2025 128.28 
L 153.997961 128.886819 
L 154.790224 129.498117 
L 155.547143 130.158895 
L 156.341974 130.766597 
L 157.112914 131.407746 
L 157.904232 132.020366 
L 158.697382 132.630421 
L 159.477612 133.258563 
L 160.250435 133.897077 
L 161.033965 134.5206 
L 161.813353 135.149921 
L 162.575751 135.803029 
L 163.362664 136.421817 
L 164.151746 137.037566 
L 165.341754 137.925044 
L 164.512882 137.195 
L 163.686826 137.758987 
L 162.841531 138.296039 
L 162.011559 138.854543 
L 161.180549 139.411594 
L 160.352055 139.972168 
L 159.531812 140.544292 
L 158.712194 141.117292 
L 157.898579 141.698696 
L 157.090373 142.287673 
L 156.283413 142.878394 
L 155.487715 143.484882 
L 154.680473 144.075208 
L 153.884245 144.680953 
L 152.711258 145.592261 
L 154.010473 145.28 
L 153.971377 144.28 
L 153.928937 143.28 
L 153.896172 142.28 
L 153.828746 141.28 
L 153.78962 140.28 
L 153.746945 139.28 
L 153.676365 138.28 
L 153.639974 137.28 
L 153.581571 136.28 
L 153.470618 135.28 
L 153.39996 134.28 
L 153.28702 133.28 
L 153.241247 132.28 
L 153.179964 131.28 
L 153.131465 130.28 
L 153.050642 128.28 
L 153.2025 128.28 
z
" clip-path="url(#paea8f917bb)" style="fill: none; stroke: #000000; stroke-width: 2; stroke-linecap: round"/>
   </g>
   <g id="line2d_1">
    <path d="M 51.5025 29.28 
L 52.5025 29.311436 
L 53.5025 29.348377 
L 54.5025 29.446123 
L 55.5025 29.478645 
L 56.5025 29.55227 
L 57.5025 29.590835 
L 58.5025 29.626248 
L 59.5025 29.683888 
L 60.5025 29.754274 
L 61.5025 29.806239 
L 62.5025 29.865328 
L 63.5025 29.953649 
L 64.5025 29.999794 
L 65.5025 30.042205 
L 66.5025 30.072697 
L 67.5025 30.098742 
L 68.5025 30.119942 
L 69.5025 30.174243 
L 70.5025 30.202181 
L 71.5025 30.231905 
L 72.5025 30.2573 
L 73.5025 30.2685 
L 74.5025 30.278624 
L 75.5025 30.27842 
L 76.5025 30.26891 
L 77.5025 30.257256 
L 78.5025 30.226227 
L 79.5025 30.215059 
L 80.5025 30.184942 
L 81.5025 30.125165 
L 82.5025 30.087973 
L 83.5025 30.048877 
L 84.5025 30.006437 
L 85.5025 29.973672 
L 86.5025 29.906246 
L 87.5025 29.86712 
L 88.5025 29.824445 
L 89.5025 29.753865 
L 90.5025 29.717474 
L 91.5025 29.659071 
L 92.5025 29.548118 
L 93.5025 29.47746 
L 94.5025 29.36452 
L 95.5025 29.318747 
L 96.5025 29.257464 
L 97.5025 29.208965 
L 98.5025 29.128142 
L 99.5025 29.009623 
L 100.5025 28.939412 
L 101.5025 28.85615 
L 102.5025 28.823008 
L 103.5025 28.771771 
L 104.5025 28.703372 
L 105.5025 28.637157 
" clip-path="url(#paea8f917bb)" style="fill: none; stroke: #000000; stroke-width: 2; stroke-linecap: round"/>
   </g>
   <g id="line2d_2">
    <path d="M 105.5025 29.28 
L 106.5025 29.311436 
L 107.5025 29.348377 
L 108.5025 29.446123 
L 109.5025 29.478645 
L 110.5025 29.55227 
L 111.5025 29.590835 
L 112.5025 29.626248 
L 113.5025 29.683888 
L 114.5025 29.754274 
L 115.5025 29.806239 
L 116.5025 29.865328 
L 117.5025 29.953649 
L 118.5025 29.999794 
L 119.5025 30.042205 
L 120.5025 30.072697 
L 121.5025 30.098742 
L 122.5025 30.119942 
L 123.5025 30.174243 
L 124.5025 30.202181 
L 125.5025 30.231905 
L 126.5025 30.2573 
L 127.5025 30.2685 
L 128.5025 30.278624 
L 129.5025 30.27842 
L 130.5025 30.26891 
L 131.5025 30.257256 
L 132.5025 30.226227 
L 133.5025 30.215059 
L 134.5025 30.184942 
L 135.5025 30.125165 
L 136.5025 30.087973 
L 137.5025 30.048877 
L 138.5025 30.006437 
L 139.5025 29.973672 
L 140.5025 29.906246 
L 141.5025 29.86712 
L 142.5025 29.824445 
L 143.5025 29.753865 
L 144.5025 29.717474 
L 145.5025 29.659071 
L 146.5025 29.548118 
L 147.5025 29.47746 
L 148.5025 29.36452 
L 149.5025 29.318747 
L 150.5025 29.257464 
L 151.5025 29.208965 
L 152.5025 29.128142 
L 153.5025 29.009623 
L 154.5025 28.939412 
L 155.5025 28.85615 
L 156.5025 28.823008 
L 157.5025 28.771771 
L 158.5025 28.703372 
L 159.5025 28.637157 
" clip-path="url(#paea8f917bb)" style="fill: none; stroke: #000000; stroke-width: 2; stroke-linecap: round"/>
   </g>
   <g id="line2d_3">
    <path d="M 159.5025 29.28 
L 160.5025 29.311436 
L 161.5025 29.348377 
L 162.5025 29.446123 
L 163.5025 29.478645 
L 164.5025 29.55227 
L 165.5025 29.590835 
L 166.5025 29.626248 
L 167.5025 29.683888 
L 168.5025 29.754274 
L 169.5025 29.806239 
L 170.5025 29.865328 
L 171.5025 29.953649 
L 172.5025 29.999794 
L 173.5025 30.042205 
L 174.5025 30.072697 
L 175.5025 30.098742 
L 176.5025 30.119942 
L 177.5025 30.174243 
L 178.5025 30.202181 
L 179.5025 30.231905 
L 180.5025 30.2573 
L 181.5025 30.2685 
L 182.5025 30.278624 
L 183.5025 30.27842 
L 184.5025 30.26891 
L 185.5025 30.257256 
L 186.5025 30.226227 
L 187.5025 30.215059 
L 188.5025 30.184942 
L 189.5025 30.125165 
L 190.5025 30.087973 
L 191.5025 30.048877 
L 192.5025 30.006437 
L 193.5025 29.973672 
L 195.5025 29.906246 
L 196.375719 28.51698 
L 196.651462 27.554802 
L 196.900731 26.583799 
L 197.182435 25.623608 
L 197.443257 24.656456 
L 197.654226 23.672687 
L 197.903421 22.701659 
L 198.112505 21.717261 
L 198.539259 20.292253 
L 198.840107 21.221557 
L 199.202346 22.154903 
L 199.595249 23.078028 
L 200.023913 23.989232 
L 200.406749 24.915713 
L 200.801966 25.838067 
L 201.149635 26.77627 
L 201.514471 27.70875 
L 201.895587 28.635804 
L 202.274632 29.563548 
L 202.66383 30.487908 
L 203.005971 31.427954 
L 203.347318 32.368264 
L 203.685034 33.309784 
L 204.019791 34.252291 
L 204.361058 35.192628 
L 204.724502 36.125573 
L 205.381904 37.986865 
L 203.905299 37.02684 
L 204.206948 36.073298 
L 204.508216 35.119628 
L 204.821206 34.169865 
L 205.13514 33.220417 
L 205.451829 32.271888 
L 205.769887 31.323815 
L 206.098692 30.379323 
L 206.422879 29.433293 
L 206.759539 28.491421 
L 207.097617 27.550021 
L 207.430194 26.606787 
L 207.763937 25.663942 
L 208.099567 24.721727 
L 208.431543 23.778293 
L 208.807328 22.849462 
L 209.194958 21.924579 
L 209.850051 20.062517 
L 211.407081 21.032566 
L 211.672035 21.99834 
L 211.956288 22.957682 
L 212.187015 23.934865 
L 212.476172 24.892572 
L 212.762529 25.851212 
L 213.049337 26.809702 
L 213.31357 27.775717 
L 213.568524 28.744825 
L 213.848517 29.705586 
L 214.073734 30.684607 
L 214.343231 31.648867 
L 214.617651 32.611486 
L 214.895814 33.572858 
L 215.109236 34.55581 
L 215.385972 35.517657 
L 215.643247 36.485991 
L 216.201003 38.380499 
L 217.219367 37.464863 
L 217.570684 36.527876 
L 217.930435 35.593701 
L 218.311642 34.666677 
L 218.674114 33.733409 
L 219.063957 32.809264 
L 219.409158 31.870238 
L 219.791334 30.943537 
L 220.130304 30.002435 
L 220.473685 29.062803 
L 220.829561 28.127336 
L 221.166257 27.185475 
L 221.495717 26.241203 
L 221.837296 25.30097 
L 222.162356 24.35523 
L 222.490392 23.410483 
L 222.817107 22.465296 
L 223.446609 20.594703 
L 221.8701 21.544893 
L 222.19159 22.491822 
L 222.520424 23.436303 
L 222.843784 24.382609 
L 223.183524 25.323455 
L 223.522111 26.264685 
L 223.872663 27.201927 
L 224.21352 28.1424 
L 224.550924 29.084025 
L 224.932383 30.010964 
L 225.319321 30.936078 
L 225.724706 31.855042 
L 226.089366 32.787581 
L 226.45676 33.719209 
L 226.806429 34.656745 
L 227.223301 35.571881 
L 227.589111 36.504036 
L 228.248252 38.364749 
L 229.043538 37.406253 
L 229.301748 36.438231 
L 229.554016 35.468228 
L 229.823847 34.504079 
L 230.078228 33.53478 
L 230.358228 32.574021 
L 230.634615 31.612057 
L 230.910982 30.650087 
L 231.324697 29.220732 
L 232.5025 28.97942 
L 233.5025 28.927169 
L 234.5025 28.887751 
L 235.5025 28.84065 
L 236.5025 28.78387 
L 237.5025 28.751207 
L 238.5025 28.715029 
L 239.5025 28.682939 
L 240.5025 28.648659 
L 241.5025 28.590281 
L 242.5025 28.545096 
L 243.5025 28.515472 
L 244.5025 28.465086 
L 245.5025 28.439889 
L 246.5025 28.418838 
L 247.5025 28.38387 
L 248.5025 28.35958 
L 249.5025 28.345513 
L 250.5025 28.326571 
L 251.5025 28.31091 
L 252.5025 28.298358 
L 253.5025 28.292522 
L 254.5025 28.28564 
L 255.5025 28.280466 
L 256.5025 28.282249 
L 257.5025 28.284974 
L 258.5025 28.296128 
L 259.5025 28.324363 
L 260.5025 28.368151 
L 261.5025 28.38884 
L 262.5025 28.429813 
L 263.5025 28.469888 
L 264.5025 28.488998 
L 265.5025 28.511507 
L 267.5025 28.578158 
" clip-path="url(#paea8f917bb)" style="fill: none; stroke: #000000; stroke-width: 2; stroke-linecap: round"/>
   </g>
   <g id="line2d_4">
    <path d="M 267.5025 29.28 
L 268.5025 29.311436 
L 269.5025 29.348377 
L 270.5025 29.446123 
L 271.5025 29.478645 
L 272.5025 29.55227 
L 273.5025 29.590835 
L 274.5025 29.626248 
L 275.5025 29.683888 
L 276.5025 29.754274 
L 277.5025 29.806239 
L 278.5025 29.865328 
L 279.5025 29.953649 
L 280.5025 29.999794 
L 281.5025 30.042205 
L 282.5025 30.072697 
L 283.5025 30.098742 
L 284.5025 30.119942 
L 285.5025 30.174243 
L 286.5025 30.202181 
L 287.5025 30.231905 
L 288.5025 30.2573 
L 289.5025 30.2685 
L 290.5025 30.278624 
L 291.5025 30.27842 
L 292.5025 30.26891 
L 293.5025 30.257256 
L 294.5025 30.226227 
L 295.5025 30.215059 
L 296.5025 30.184942 
L 297.5025 30.125165 
L 298.5025 30.087973 
L 299.5025 30.048877 
L 300.5025 30.006437 
L 301.5025 29.973672 
L 302.5025 29.906246 
L 303.5025 29.86712 
L 304.5025 29.824445 
L 305.5025 29.753865 
L 306.5025 29.717474 
L 307.5025 29.659071 
L 308.5025 29.548118 
L 309.5025 29.47746 
L 310.5025 29.36452 
L 311.5025 29.318747 
L 312.5025 29.257464 
L 313.5025 29.208965 
L 314.5025 29.128142 
L 315.5025 29.009623 
L 316.5025 28.939412 
L 317.5025 28.85615 
L 318.5025 28.823008 
L 319.5025 28.771771 
L 320.5025 28.703372 
L 321.5025 28.637157 
" clip-path="url(#paea8f917bb)" style="fill: none; stroke: #000000; stroke-width: 2; stroke-linecap: round"/>
   </g>
   <g id="line2d_5">
    <path d="M 321.5025 29.28 
L 322.5025 29.311436 
L 323.5025 29.348377 
L 324.5025 29.446123 
L 325.5025 29.478645 
L 326.5025 29.55227 
L 327.5025 29.590835 
L 328.5025 29.626248 
L 329.5025 29.683888 
L 330.5025 29.754274 
L 331.5025 29.806239 
L 332.5025 29.865328 
L 333.5025 29.953649 
L 334.5025 29.999794 
L 335.5025 30.042205 
L 336.5025 30.072697 
L 337.5025 30.098742 
L 338.5025 30.119942 
L 339.5025 30.174243 
L 340.5025 30.202181 
L 341.5025 30.231905 
L 342.5025 30.2573 
L 343.5025 30.2685 
L 344.5025 30.278624 
L 345.5025 30.27842 
L 346.5025 30.26891 
L 347.5025 30.257256 
L 348.5025 30.226227 
L 349.5025 30.215059 
L 350.5025 30.184942 
L 351.5025 30.125165 
L 352.5025 30.087973 
L 353.5025 30.048877 
L 354.5025 30.006437 
L 355.5025 29.973672 
L 356.5025 29.906246 
L 357.5025 29.86712 
L 358.5025 29.824445 
L 359.5025 29.753865 
L 360.5025 29.717474 
L 361.5025 29.659071 
L 362.5025 29.548118 
L 363.5025 29.47746 
L 364.5025 29.36452 
L 365.5025 29.318747 
L 366.5025 29.257464 
L 367.5025 29.208965 
L 368.5025 29.128142 
L 369.5025 29.009623 
L 370.5025 28.939412 
L 371.5025 28.85615 
L 372.5025 28.823008 
L 373.5025 28.771771 
L 374.5025 28.703372 
L 375.5025 28.637157 
" clip-path="url(#paea8f917bb)" style="fill: none; stroke: #000000; stroke-width: 2; stroke-linecap: round"/>
   </g>
   <g id="line2d_6">
    <path d="M 105.5025 29.28 
L 105.471064 30.28 
L 105.434123 31.28 
L 105.336377 32.28 
L 105.303855 33.28 
L 105.23023 34.28 
L 105.191665 35.28 
L 105.156252 36.28 
L 105.098612 37.28 
L 105.028226 38.28 
L 104.976261 39.28 
L 104.917172 40.28 
L 104.828851 41.28 
L 104.782706 42.28 
L 104.740295 43.28 
L 104.709803 44.28 
L 104.683758 45.28 
L 104.662558 46.28 
L 104.608257 47.28 
L 104.580319 48.28 
L 104.550595 49.28 
L 104.5252 50.28 
L 104.514 51.28 
L 104.503876 52.28 
L 104.50408 53.28 
L 104.51359 54.28 
L 104.525244 55.28 
L 104.556273 56.28 
L 104.567441 57.28 
L 104.597558 58.28 
L 104.657335 59.28 
L 104.694527 60.28 
L 104.733623 61.28 
L 104.776063 62.28 
L 104.808828 63.28 
L 104.876254 64.28 
L 104.91538 65.28 
L 104.958055 66.28 
L 105.028635 67.28 
L 105.065026 68.28 
L 105.123429 69.28 
L 105.234382 70.28 
L 105.30504 71.28 
L 105.41798 72.28 
L 105.463753 73.28 
L 105.525036 74.28 
L 105.573535 75.28 
L 105.654358 76.28 
L 105.772877 77.28 
L 105.843088 78.28 
L 105.92635 79.28 
L 105.959492 80.28 
L 106.010729 81.28 
L 106.079128 82.28 
L 106.145343 83.28 
L 106.22226 84.28 
L 106.249576 85.28 
L 106.276053 86.28 
L 106.298704 87.28 
L 106.318235 88.28 
L 106.344629 89.28 
L 106.3944 90.28 
L 106.429473 91.28 
L 106.465339 92.28 
L 106.480706 93.28 
L 106.496475 94.28 
L 106.499888 95.28 
L 106.502305 96.28 
L 106.501819 97.28 
L 106.49989 98.28 
L 106.486633 99.28 
L 106.478242 100.28 
L 106.456706 101.28 
L 106.433673 102.28 
L 106.41644 103.28 
L 106.397977 104.28 
L 106.377525 105.28 
L 106.360925 106.28 
L 106.298146 107.28 
L 106.222881 108.28 
L 106.190242 109.28 
L 106.122678 110.28 
L 106.068631 111.28 
L 106.034927 112.28 
L 105.944801 113.28 
L 105.916266 114.28 
L 105.88478 115.28 
L 105.853769 116.28 
L 105.798961 117.28 
L 105.734374 118.28 
L 105.696178 119.28 
L 105.600244 120.28 
L 105.550986 121.28 
L 105.506917 122.28 
L 105.466793 123.28 
L 105.358426 124.28 
L 105.316798 125.28 
L 105.254656 126.28 
L 105.184694 127.28 
L 105.08019 128.28 
L 105.043202 129.28 
L 104.997325 130.28 
L 104.92883 131.28 
L 104.880084 132.28 
L 104.802487 133.28 
L 104.771946 134.28 
L 104.702432 135.28 
L 104.678459 136.28 
L 104.649837 137.28 
" clip-path="url(#paea8f917bb)" style="fill: none; stroke: #000000; stroke-width: 2; stroke-linecap: round"/>
   </g>
   <g id="line2d_7">
    <path d="M 105.5025 137.28 
L 106.5025 137.311436 
L 107.5025 137.348377 
L 108.5025 137.446123 
L 109.5025 137.478645 
L 110.5025 137.55227 
L 111.5025 137.590835 
L 112.5025 137.626248 
L 113.5025 137.683888 
L 114.5025 137.754274 
L 115.5025 137.806239 
L 116.5025 137.865328 
L 117.5025 137.953649 
L 118.5025 137.999794 
L 119.5025 138.042205 
L 120.5025 138.072697 
L 121.5025 138.098742 
L 122.5025 138.119942 
L 123.5025 138.174243 
L 124.5025 138.202181 
L 125.5025 138.231905 
L 126.5025 138.2573 
L 127.5025 138.2685 
L 128.5025 138.278624 
L 129.5025 138.27842 
L 130.5025 138.26891 
L 131.5025 138.257256 
L 132.5025 138.226227 
L 133.5025 138.215059 
L 134.5025 138.184942 
L 135.5025 138.125165 
L 136.5025 138.087973 
L 137.5025 138.048877 
L 138.5025 138.006437 
L 139.5025 137.973672 
L 140.5025 137.906246 
L 141.5025 137.86712 
L 142.5025 137.824445 
L 143.5025 137.753865 
L 144.5025 137.717474 
L 145.5025 137.659071 
L 146.5025 137.548118 
L 147.5025 137.47746 
L 148.5025 137.36452 
L 149.5025 137.318747 
L 150.5025 137.257464 
L 151.5025 137.208965 
L 153.2025 137.128142 
M 165.8025 128.28 
L 165.681461 129.28 
L 165.608641 130.28 
L 165.521108 131.28 
L 165.485882 132.28 
L 165.430949 133.28 
L 165.356629 134.28 
L 165.283435 135.28 
L 165.196511 136.28 
L 165.165035 137.28 
L 165.134156 138.28 
L 165.107409 139.28 
L 165.084064 140.28 
L 165.052031 141.28 
L 164.98962 142.28 
L 164.943244 143.28 
L 164.891842 144.28 
L 164.867171 146.28 
M 165.8025 137.28 
L 166.8025 137.379169 
L 167.8025 137.416434 
L 168.8025 137.468299 
L 169.8025 137.523586 
L 170.8025 137.557727 
L 171.8025 137.657909 
L 172.8025 137.696751 
L 173.8025 137.770761 
L 174.8025 137.829978 
L 175.8025 137.866773 
L 176.8025 137.901341 
L 177.8025 137.935216 
L 178.8025 137.960002 
L 179.8025 138.037766 
L 180.8025 138.108041 
L 181.8025 138.132935 
L 182.8025 138.176136 
L 183.8025 138.2039 
L 184.8025 138.21858 
L 185.8025 138.249159 
L 186.8025 138.256456 
L 187.8025 138.263283 
L 188.8025 138.268806 
L 189.8025 138.275787 
L 190.8025 138.279691 
L 191.8025 138.279898 
L 192.8025 138.273817 
L 193.8025 138.267123 
L 194.8025 138.259113 
L 195.8025 138.250168 
L 196.8025 138.218085 
L 197.8025 138.202632 
L 198.8025 138.176224 
L 199.8025 138.141503 
L 200.8025 138.079008 
L 201.8025 138.053555 
L 202.8025 138.019315 
L 203.8025 137.96212 
L 204.8025 137.916392 
L 205.8025 137.833217 
L 206.8025 137.796283 
L 207.8025 137.70071 
L 208.8025 137.663081 
L 209.8025 137.61403 
L 210.8025 137.531688 
L 211.8025 137.482161 
L 213.5025 137.4465 
" clip-path="url(#paea8f917bb)" style="fill: none; stroke: #000000; stroke-width: 2; stroke-linecap: round"/>
   </g>
   <g id="line2d_8">
    <path d="M 162.2025 123.78 
L 162.725933 122.927354 
L 163.254146 122.077438 
L 163.835152 121.257691 
L 164.359528 120.405583 
L 164.919591 119.573868 
L 165.449214 118.724759 
L 165.9761 117.874085 
L 166.522285 117.03444 
L 167.079536 116.201118 
L 168.087203 114.542438 
" clip-path="url(#paea8f917bb)" style="fill: none; stroke: #000000; stroke-width: 2; stroke-linecap: round"/>
   </g>
   <g id="patch_3">
    <path d="M 165.129759 112.85247 
L 165.93242 112.255207 
L 166.738503 111.662253 
L 167.582401 111.116917 
L 168.385736 110.520503 
L 169.214633 109.956277 
L 170.021727 109.364596 
L 171.417826 108.301151 
L 170.664291 108.964589 
L 170.456384 109.945267 
L 170.266723 110.928491 
L 170.070004 111.91073 
L 169.844334 112.888929 
L 169.660437 113.872957 
L 169.375949 115.604897 
L 169.655885 114.525838 
L 168.800564 114.007085 
L 167.942839 113.49254 
L 167.101536 112.949254 
L 165.587289 112.051793 
z
" clip-path="url(#paea8f917bb)"/>
   </g>
   <g id="line2d_9">
    <path d="M 154.1025 123.78 
L 154.625933 122.927354 
L 155.154146 122.077438 
L 155.735152 121.257691 
L 156.259528 120.405583 
L 156.819591 119.573868 
L 157.349214 118.724759 
L 157.8761 117.874085 
L 158.422285 117.03444 
L 158.979536 116.201118 
L 159.987203 114.542438 
" clip-path="url(#paea8f917bb)" style="fill: none; stroke: #000000; stroke-width: 2; stroke-linecap: round"/>
   </g>
   <g id="patch_4">
    <path d="M 157.029759 112.85247 
L 157.83242 112.255207 
L 158.638503 111.662253 
L 159.482401 111.116917 
L 160.285736 110.520503 
L 161.114633 109.956277 
L 161.921727 109.364596 
L 163.317826 108.301151 
L 162.564291 108.964589 
L 162.356384 109.945267 
L 162.166723 110.928491 
L 161.970004 111.91073 
L 161.744334 112.888929 
L 161.560437 113.872957 
L 161.275949 115.604897 
L 161.555885 114.525838 
L 160.700564 114.007085 
L 159.842839 113.49254 
L 159.001536 112.949254 
L 157.487289 112.051793 
z
" clip-path="url(#paea8f917bb)"/>
   </g>
   <g id="line2d_10">
    <path d="M 213.5025 137.28 
L 214.5025 137.311436 
L 215.5025 137.348377 
L 216.5025 137.446123 
L 217.5025 137.478645 
L 218.5025 137.55227 
L 219.5025 137.590835 
L 220.5025 137.626248 
L 221.5025 137.683888 
L 222.5025 137.754274 
L 223.5025 137.806239 
L 224.5025 137.865328 
L 225.5025 137.953649 
L 226.5025 137.999794 
L 227.5025 138.042205 
L 228.5025 138.072697 
L 229.5025 138.098742 
L 230.5025 138.119942 
L 231.5025 138.174243 
L 232.5025 138.202181 
L 233.5025 138.231905 
L 234.5025 138.2573 
L 235.5025 138.2685 
L 236.5025 138.278624 
L 237.5025 138.27842 
L 238.5025 138.26891 
L 239.5025 138.257256 
L 240.5025 138.226227 
L 241.5025 138.215059 
L 242.5025 138.184942 
L 243.5025 138.125165 
L 244.5025 138.087973 
L 245.5025 138.048877 
L 246.5025 138.006437 
L 247.5025 137.973672 
L 249.5025 137.906246 
L 250.375719 136.51698 
L 250.651462 135.554802 
L 250.900731 134.583799 
L 251.182435 133.623608 
L 251.443257 132.656456 
L 251.654226 131.672687 
L 251.903421 130.701659 
L 252.112505 129.717261 
L 252.539259 128.292253 
L 252.840107 129.221557 
L 253.202346 130.154903 
L 253.595249 131.078028 
L 254.023913 131.989232 
L 254.406749 132.915713 
L 254.801966 133.838067 
L 255.149635 134.77627 
L 255.514471 135.70875 
L 255.895587 136.635804 
L 256.274632 137.563548 
L 256.66383 138.487908 
L 257.005971 139.427954 
L 257.347318 140.368264 
L 257.685034 141.309784 
L 258.019791 142.252291 
L 258.361058 143.192628 
L 258.724502 144.125573 
L 259.381904 145.986865 
L 257.905299 145.02684 
L 258.206948 144.073298 
L 258.508216 143.119628 
L 258.821206 142.169865 
L 259.13514 141.220417 
L 259.451829 140.271888 
L 259.769887 139.323815 
L 260.098692 138.379323 
L 260.422879 137.433293 
L 260.759539 136.491421 
L 261.097617 135.550021 
L 261.430194 134.606787 
L 261.763937 133.663942 
L 262.099567 132.721727 
L 262.431543 131.778293 
L 262.807328 130.849462 
L 263.194958 129.924579 
L 263.850051 128.062517 
L 265.407081 129.032566 
L 265.672035 129.99834 
L 265.956288 130.957682 
L 266.187015 131.934865 
L 266.476172 132.892572 
L 266.762529 133.851212 
L 267.049337 134.809702 
L 267.31357 135.775717 
L 267.568524 136.744825 
L 267.848517 137.705586 
L 268.073734 138.684607 
L 268.343231 139.648867 
L 268.617651 140.611486 
L 268.895814 141.572858 
L 269.109236 142.55581 
L 269.385972 143.517657 
L 269.643247 144.485991 
L 270.201003 146.380499 
L 271.219367 145.464863 
L 271.570684 144.527876 
L 271.930435 143.593701 
L 272.311642 142.666677 
L 272.674114 141.733409 
L 273.063957 140.809264 
L 273.409158 139.870238 
L 273.791334 138.943537 
L 274.130304 138.002435 
L 274.473685 137.062803 
L 274.829561 136.127336 
L 275.166257 135.185475 
L 275.495717 134.241203 
L 275.837296 133.30097 
L 276.162356 132.35523 
L 276.490392 131.410483 
L 276.817107 130.465296 
L 277.446609 128.594703 
L 275.8701 129.544893 
L 276.19159 130.491822 
L 276.520424 131.436303 
L 276.843784 132.382609 
L 277.183524 133.323455 
L 277.522111 134.264685 
L 277.872663 135.201927 
L 278.21352 136.1424 
L 278.550924 137.084025 
L 278.932383 138.010964 
L 279.319321 138.936078 
L 279.724706 139.855042 
L 280.089366 140.787581 
L 280.45676 141.719209 
L 280.806429 142.656745 
L 281.223301 143.571881 
L 281.589111 144.504036 
L 282.248252 146.364749 
L 283.043538 145.406253 
L 283.301748 144.438231 
L 283.554016 143.468228 
L 283.823847 142.504079 
L 284.078228 141.53478 
L 284.358228 140.574021 
L 284.634615 139.612057 
L 284.910982 138.650087 
L 285.324697 137.220732 
L 286.5025 136.97942 
L 287.5025 136.927169 
L 288.5025 136.887751 
L 289.5025 136.84065 
L 290.5025 136.78387 
L 291.5025 136.751207 
L 292.5025 136.715029 
L 293.5025 136.682939 
L 294.5025 136.648659 
L 295.5025 136.590281 
L 296.5025 136.545096 
L 297.5025 136.515472 
L 298.5025 136.465086 
L 299.5025 136.439889 
L 300.5025 136.418838 
L 301.5025 136.38387 
L 302.5025 136.35958 
L 303.5025 136.345513 
L 304.5025 136.326571 
L 305.5025 136.31091 
L 306.5025 136.298358 
L 307.5025 136.292522 
L 308.5025 136.28564 
L 309.5025 136.280466 
L 310.5025 136.282249 
L 311.5025 136.284974 
L 312.5025 136.296128 
L 313.5025 136.324363 
L 314.5025 136.368151 
L 315.5025 136.38884 
L 316.5025 136.429813 
L 317.5025 136.469888 
L 318.5025 136.488998 
L 319.5025 136.511507 
L 321.5025 136.578158 
" clip-path="url(#paea8f917bb)" style="fill: none; stroke: #000000; stroke-width: 2; stroke-linecap: round"/>
   </g>
   <g id="line2d_11">
    <path d="M 321.5025 137.28 
L 321.533936 136.28 
L 321.570877 135.28 
L 321.668623 134.28 
L 321.701145 133.28 
L 321.77477 132.28 
L 321.813335 131.28 
L 321.848748 130.28 
L 321.906388 129.28 
L 321.976774 128.28 
L 322.028739 127.28 
L 322.087828 126.28 
L 322.176149 125.28 
L 322.222294 124.28 
L 322.264705 123.28 
L 322.295197 122.28 
L 322.321242 121.28 
L 322.342442 120.28 
L 322.396743 119.28 
L 322.424681 118.28 
L 322.454405 117.28 
L 322.4798 116.28 
L 322.491 115.28 
L 322.501124 114.28 
L 322.50092 113.28 
L 322.49141 112.28 
L 322.479756 111.28 
L 322.448727 110.28 
L 322.437559 109.28 
L 322.407442 108.28 
L 322.347665 107.28 
L 322.310473 106.28 
L 322.271377 105.28 
L 322.228937 104.28 
L 322.196172 103.28 
L 322.128746 102.28 
L 322.08962 101.28 
L 322.046945 100.28 
L 321.976365 99.28 
L 321.939974 98.28 
L 321.881571 97.28 
L 321.770618 96.28 
L 321.69996 95.28 
L 321.58702 94.28 
L 321.541247 93.28 
L 321.479964 92.28 
L 321.431465 91.28 
L 321.350642 90.28 
L 321.232123 89.28 
L 321.161912 88.28 
L 321.07865 87.28 
L 321.045508 86.28 
L 320.994271 85.28 
L 320.925872 84.28 
L 320.859657 83.28 
L 320.78274 82.28 
L 320.755424 81.28 
L 320.728947 80.28 
L 320.706296 79.28 
L 320.686765 78.28 
L 320.660371 77.28 
L 320.6106 76.28 
L 320.575527 75.28 
L 320.539661 74.28 
L 320.524294 73.28 
L 320.508525 72.28 
L 320.505112 71.28 
L 320.502695 70.28 
L 320.503181 69.28 
L 320.50511 68.28 
L 320.518367 67.28 
L 320.526758 66.28 
L 320.548294 65.28 
L 320.571327 64.28 
L 320.58856 63.28 
L 320.607023 62.28 
L 320.627475 61.28 
L 320.644075 60.28 
L 320.706854 59.28 
L 320.782119 58.28 
L 320.814758 57.28 
L 320.882322 56.28 
L 320.936369 55.28 
L 320.970073 54.28 
L 321.060199 53.28 
L 321.088734 52.28 
L 321.12022 51.28 
L 321.151231 50.28 
L 321.206039 49.28 
L 321.270626 48.28 
L 321.308822 47.28 
L 321.404756 46.28 
L 321.454014 45.28 
L 321.498083 44.28 
L 321.538207 43.28 
L 321.646574 42.28 
L 321.688202 41.28 
L 321.750344 40.28 
L 321.820306 39.28 
L 321.92481 38.28 
L 321.961798 37.28 
L 322.007675 36.28 
L 322.07617 35.28 
L 322.124916 34.28 
L 322.202513 33.28 
L 322.233054 32.28 
L 322.302568 31.28 
L 322.326541 30.28 
L 322.355163 29.28 
" clip-path="url(#paea8f917bb)" style="fill: none; stroke: #000000; stroke-width: 2; stroke-linecap: round"/>
   </g>
   <g id="text_1">
    <!-- Probe + -->
    <g transform="translate(0 32.59125) scale(0.12 -0.12)">
     <defs>
      <path id="DejaVuSans-50" d="M 1259 4147 
L 1259 2394 
L 2053 2394 
Q 2494 2394 2734 2622 
Q 2975 2850 2975 3272 
Q 2975 3691 2734 3919 
Q 2494 4147 2053 4147 
L 1259 4147 
z
M 628 4666 
L 2053 4666 
Q 2838 4666 3239 4311 
Q 3641 3956 3641 3272 
Q 3641 2581 3239 2228 
Q 2838 1875 2053 1875 
L 1259 1875 
L 1259 0 
L 628 0 
L 628 4666 
z
" transform="scale(0.015625)"/>
      <path id="DejaVuSans-72" d="M 2631 2963 
Q 2534 3019 2420 3045 
Q 2306 3072 2169 3072 
Q 1681 3072 1420 2755 
Q 1159 2438 1159 1844 
L 1159 0 
L 581 0 
L 581 3500 
L 1159 3500 
L 1159 2956 
Q 1341 3275 1631 3429 
Q 1922 3584 2338 3584 
Q 2397 3584 2469 3576 
Q 2541 3569 2628 3553 
L 2631 2963 
z
" transform="scale(0.015625)"/>
      <path id="DejaVuSans-6f" d="M 1959 3097 
Q 1497 3097 1228 2736 
Q 959 2375 959 1747 
Q 959 1119 1226 758 
Q 1494 397 1959 397 
Q 2419 397 2687 759 
Q 2956 1122 2956 1747 
Q 2956 2369 2687 2733 
Q 2419 3097 1959 3097 
z
M 1959 3584 
Q 2709 3584 3137 3096 
Q 3566 2609 3566 1747 
Q 3566 888 3137 398 
Q 2709 -91 1959 -91 
Q 1206 -91 779 398 
Q 353 888 353 1747 
Q 353 2609 779 3096 
Q 1206 3584 1959 3584 
z
" transform="scale(0.015625)"/>
      <path id="DejaVuSans-62" d="M 3116 1747 
Q 3116 2381 2855 2742 
Q 2594 3103 2138 3103 
Q 1681 3103 1420 2742 
Q 1159 2381 1159 1747 
Q 1159 1113 1420 752 
Q 1681 391 2138 391 
Q 2594 391 2855 752 
Q 3116 1113 3116 1747 
z
M 1159 2969 
Q 1341 3281 1617 3432 
Q 1894 3584 2278 3584 
Q 2916 3584 3314 3078 
Q 3713 2572 3713 1747 
Q 3713 922 3314 415 
Q 2916 -91 2278 -91 
Q 1894 -91 1617 61 
Q 1341 213 1159 525 
L 1159 0 
L 581 0 
L 581 4863 
L 1159 4863 
L 1159 2969 
z
" transform="scale(0.015625)"/>
      <path id="DejaVuSans-65" d="M 3597 1894 
L 3597 1613 
L 953 1613 
Q 991 1019 1311 708 
Q 1631 397 2203 397 
Q 2534 397 2845 478 
Q 3156 559 3463 722 
L 3463 178 
Q 3153 47 2828 -22 
Q 2503 -91 2169 -91 
Q 1331 -91 842 396 
Q 353 884 353 1716 
Q 353 2575 817 3079 
Q 1281 3584 2069 3584 
Q 2775 3584 3186 3129 
Q 3597 2675 3597 1894 
z
M 3022 2063 
Q 3016 2534 2758 2815 
Q 2500 3097 2075 3097 
Q 1594 3097 1305 2825 
Q 1016 2553 972 2059 
L 3022 2063 
z
" transform="scale(0.015625)"/>
      <path id="DejaVuSans-20" transform="scale(0.015625)"/>
      <path id="DejaVuSans-2b" d="M 2944 4013 
L 2944 2272 
L 4684 2272 
L 4684 1741 
L 2944 1741 
L 2944 0 
L 2419 0 
L 2419 1741 
L 678 1741 
L 678 2272 
L 2419 2272 
L 2419 4013 
L 2944 4013 
z
" transform="scale(0.015625)"/>
     </defs>
     <use xlink:href="#DejaVuSans-50"/>
     <use xlink:href="#DejaVuSans-72" transform="translate(58.552734 0)"/>
     <use xlink:href="#DejaVuSans-6f" transform="translate(97.416016 0)"/>
     <use xlink:href="#DejaVuSans-62" transform="translate(158.597656 0)"/>
     <use xlink:href="#DejaVuSans-65" transform="translate(222.074219 0)"/>
     <use xlink:href="#DejaVuSans-20" transform="translate(283.597656 0)"/>
     <use xlink:href="#DejaVuSans-2b" transform="translate(315.384766 0)"/>
    </g>
   </g>
   <g id="text_2">
    <!-- 1 kΩ / 10 W -->
    <g transform="translate(178.409063 14.184375) scale(0.12 -0.12)">
     <defs>
      <path id="DejaVuSans-31" d="M 794 531 
L 1825 531 
L 1825 4091 
L 703 3866 
L 703 4441 
L 1819 4666 
L 2450 4666 
L 2450 531 
L 3481 531 
L 3481 0 
L 794 0 
L 794 531 
z
" transform="scale(0.015625)"/>
      <path id="DejaVuSans-6b" d="M 581 4863 
L 1159 4863 
L 1159 1991 
L 2875 3500 
L 3609 3500 
L 1753 1863 
L 3688 0 
L 2938 0 
L 1159 1709 
L 1159 0 
L 581 0 
L 581 4863 
z
" transform="scale(0.015625)"/>
      <path id="DejaVuSans-3a9" d="M 4647 556 
L 4647 0 
L 2772 0 
L 2772 556 
Q 3325 859 3634 1378 
Q 3944 1897 3944 2528 
Q 3944 3278 3531 3731 
Q 3119 4184 2444 4184 
Q 1769 4184 1355 3729 
Q 941 3275 941 2528 
Q 941 1897 1250 1378 
Q 1563 859 2119 556 
L 2119 0 
L 244 0 
L 244 556 
L 1241 556 
Q 747 991 519 1456 
Q 294 1922 294 2497 
Q 294 3491 894 4106 
Q 1491 4722 2444 4722 
Q 3391 4722 3994 4106 
Q 4594 3494 4594 2528 
Q 4594 1922 4372 1459 
Q 4150 997 3647 556 
L 4647 556 
z
" transform="scale(0.015625)"/>
      <path id="DejaVuSans-2f" d="M 1625 4666 
L 2156 4666 
L 531 -594 
L 0 -594 
L 1625 4666 
z
" transform="scale(0.015625)"/>
      <path id="DejaVuSans-30" d="M 2034 4250 
Q 1547 4250 1301 3770 
Q 1056 3291 1056 2328 
Q 1056 1369 1301 889 
Q 1547 409 2034 409 
Q 2525 409 2770 889 
Q 3016 1369 3016 2328 
Q 3016 3291 2770 3770 
Q 2525 4250 2034 4250 
z
M 2034 4750 
Q 2819 4750 3233 4129 
Q 3647 3509 3647 2328 
Q 3647 1150 3233 529 
Q 2819 -91 2034 -91 
Q 1250 -91 836 529 
Q 422 1150 422 2328 
Q 422 3509 836 4129 
Q 1250 4750 2034 4750 
z
" transform="scale(0.015625)"/>
      <path id="DejaVuSans-57" d="M 213 4666 
L 850 4666 
L 1831 722 
L 2809 4666 
L 3519 4666 
L 4500 722 
L 5478 4666 
L 6119 4666 
L 4947 0 
L 4153 0 
L 3169 4050 
L 2175 0 
L 1381 0 
L 213 4666 
z
" transform="scale(0.015625)"/>
     </defs>
     <use xlink:href="#DejaVuSans-31"/>
     <use xlink:href="#DejaVuSans-20" transform="translate(63.623047 0)"/>
     <use xlink:href="#DejaVuSans-6b" transform="translate(95.410156 0)"/>
     <use xlink:href="#DejaVuSans-3a9" transform="translate(153.320312 0)"/>
     <use xlink:href="#DejaVuSans-20" transform="translate(229.736328 0)"/>
     <use xlink:href="#DejaVuSans-2f" transform="translate(261.523438 0)"/>
     <use xlink:href="#DejaVuSans-20" transform="translate(295.214844 0)"/>
     <use xlink:href="#DejaVuSans-31" transform="translate(327.001953 0)"/>
     <use xlink:href="#DejaVuSans-30" transform="translate(390.625 0)"/>
     <use xlink:href="#DejaVuSans-20" transform="translate(454.248047 0)"/>
     <use xlink:href="#DejaVuSans-57" transform="translate(486.035156 0)"/>
    </g>
   </g>
   <g id="text_3">
    <!-- Probe − -->
    <g transform="translate(379.1025 32.59125) scale(0.12 -0.12)">
     <defs>
      <path id="DejaVuSans-2212" d="M 678 2272 
L 4684 2272 
L 4684 1741 
L 678 1741 
L 678 2272 
z
" transform="scale(0.015625)"/>
     </defs>
     <use xlink:href="#DejaVuSans-50"/>
     <use xlink:href="#DejaVuSans-72" transform="translate(58.552734 0)"/>
     <use xlink:href="#DejaVuSans-6f" transform="translate(97.416016 0)"/>
     <use xlink:href="#DejaVuSans-62" transform="translate(158.597656 0)"/>
     <use xlink:href="#DejaVuSans-65" transform="translate(222.074219 0)"/>
     <use xlink:href="#DejaVuSans-20" transform="translate(283.597656 0)"/>
     <use xlink:href="#DejaVuSans-2212" transform="translate(315.384766 0)"/>
    </g>
   </g>
   <g id="text_4">
    <!-- LED -->
    <g transform="translate(147.748125 158.998125) scale(0.12 -0.12)">
     <defs>
      <path id="DejaVuSans-4c" d="M 628 4666 
L 1259 4666 
L 1259 531 
L 3531 531 
L 3531 0 
L 628 0 
L 628 4666 
z
" transform="scale(0.015625)"/>
      <path id="DejaVuSans-45" d="M 628 4666 
L 3578 4666 
L 3578 4134 
L 1259 4134 
L 1259 2753 
L 3481 2753 
L 3481 2222 
L 1259 2222 
L 1259 531 
L 3634 531 
L 3634 0 
L 628 0 
L 628 4666 
z
" transform="scale(0.015625)"/>
      <path id="DejaVuSans-44" d="M 1259 4147 
L 1259 519 
L 2022 519 
Q 2988 519 3436 956 
Q 3884 1394 3884 2338 
Q 3884 3275 3436 3711 
Q 2988 4147 2022 4147 
L 1259 4147 
z
M 628 4666 
L 1925 4666 
Q 3281 4666 3915 4102 
Q 4550 3538 4550 2338 
Q 4550 1131 3912 565 
Q 3275 0 1925 0 
L 628 0 
L 628 4666 
z
" transform="scale(0.015625)"/>
     </defs>
     <use xlink:href="#DejaVuSans-4c"/>
     <use xlink:href="#DejaVuSans-45" transform="translate(55.712891 0)"/>
     <use xlink:href="#DejaVuSans-44" transform="translate(118.896484 0)"/>
    </g>
   </g>
   <g id="text_5">
    <!-- 10 kΩ / 1 W -->
    <g transform="translate(232.409063 158.998125) scale(0.12 -0.12)">
     <use xlink:href="#DejaVuSans-31"/>
     <use xlink:href="#DejaVuSans-30" transform="translate(63.623047 0)"/>
     <use xlink:href="#DejaVuSans-20" transform="translate(127.246094 0)"/>
     <use xlink:href="#DejaVuSans-6b" transform="translate(159.033203 0)"/>
     <use xlink:href="#DejaVuSans-3a9" transform="translate(216.943359 0)"/>
     <use xlink:href="#DejaVuSans-20" transform="translate(293.359375 0)"/>
     <use xlink:href="#DejaVuSans-2f" transform="translate(325.146484 0)"/>
     <use xlink:href="#DejaVuSans-20" transform="translate(358.837891 0)"/>
     <use xlink:href="#DejaVuSans-31" transform="translate(390.625 0)"/>
     <use xlink:href="#DejaVuSans-20" transform="translate(454.248047 0)"/>
     <use xlink:href="#DejaVuSans-57" transform="translate(486.035156 0)"/>
    </g>
   </g>
   <g id="patch_5">
    <path d="M 105.5025 31.98 
L 106.037974 31.975806 
L 107.035551 31.604373 
L 107.521081 31.314209 
L 107.913197 30.917692 
L 108.418483 29.917575 
L 108.512647 29.300678 
L 108.51242 28.723584 
L 108.136845 27.618554 
L 107.768618 27.058501 
L 107.355913 26.622762 
L 106.259878 26.074788 
L 105.547313 25.907843 
L 104.921235 25.897362 
L 103.703932 26.314614 
L 103.071319 26.774244 
L 102.62513 27.233973 
L 102.062056 28.425186 
L 101.910237 29.220512 
L 101.917923 29.874729 
L 102.361853 31.151163 
L 102.857816 31.832742 
L 103.344687 32.285126 
L 104.586961 32.867047 
L 105.436082 32.976208 
L 105.5025 31.98 
z
" clip-path="url(#paea8f917bb)" style="stroke: #000000; stroke-width: 2; stroke-linejoin: miter"/>
   </g>
   <g id="patch_6">
    <path d="M 321.5025 31.98 
L 322.037974 31.975806 
L 323.035551 31.604373 
L 323.521081 31.314209 
L 323.913197 30.917692 
L 324.418483 29.917575 
L 324.512647 29.300678 
L 324.51242 28.723584 
L 324.136845 27.618554 
L 323.768618 27.058501 
L 323.355913 26.622762 
L 322.259878 26.074788 
L 321.547313 25.907843 
L 320.921235 25.897362 
L 319.703932 26.314614 
L 319.071319 26.774244 
L 318.62513 27.233973 
L 318.062056 28.425186 
L 317.910237 29.220512 
L 317.917923 29.874729 
L 318.361853 31.151163 
L 318.857816 31.832742 
L 319.344687 32.285126 
L 320.586961 32.867047 
L 321.436082 32.976208 
L 321.5025 31.98 
z
" clip-path="url(#paea8f917bb)" style="stroke: #000000; stroke-width: 2; stroke-linejoin: miter"/>
   </g>
  </g>
 </g>
 <defs>
  <clipPath id="paea8f917bb">
   <rect x="0.8145" y="-0" width="423.936" height="166.56"/>
  </clipPath>
 </defs>
</svg>
