<svg xmlns="http://www.w3.org/2000/svg" xmlns:xlink="http://www.w3.org/1999/xlink" xml:lang="en" height="164.39999999999998pt" width="321.67400000000004pt" viewBox="-47.074 -28.199999999999996 321.67400000000004 164.39999999999998"><polygon points="101.7,99 114.3,108 101.7,117 " style="stroke:black;fill:none;stroke-width:2.0;stroke-dasharray:-;stroke-linecap:round;stroke-linejoin:round;" /><path d="M 0.0,-0.0 L 27,-0 L 54,-0" style="stroke:black;fill:none;stroke-width:2.0;stroke-dasharray:-;stroke-linecap:round;stroke-linejoin:round;" /><path d="M 54.0,-0.0 L 90,-0 L 93,-9 L 99,9 L 105,-9 L 111,9 L 117,-9 L 123,9 L 126,-0 L 162,-0" style="stroke:black;fill:none;stroke-width:2.0;stroke-dasharray:-;stroke-linecap:round;stroke-linejoin:round;" /><path d="M 162.0,-0.0 L 189,-0 L 216,-0" style="stroke:black;fill:none;stroke-width:2.0;stroke-dasharray:-;stroke-linecap:round;stroke-linejoin:round;" /><path d="M 54.0,-0.0 L 54,54 L 54,108" style="stroke:black;fill:none;stroke-width:2.0;stroke-dasharray:-;stroke-linecap:round;stroke-linejoin:round;" /><path d="M 53.999999999999986,108.0 L 101.7,108 M 114.3,99 L 114.3,117 M 114.3,108 L 162,108" style="stroke:black;fill:none;stroke-width:2.0;stroke-dasharray:-;stroke-linecap:round;stroke-linejoin:round;" /><path d="M 110.69999999999997,94.5 L 116.128,85.001" style="stroke:black;fill:none;stroke-width:2.0;stroke-dasharray:-;stroke-linecap:round;stroke-linejoin:round;" /><path d="M 118.708 80.486 L 118.628 86.43 L 113.627 83.572 Z" style="stroke:black;fill:black;stroke-linecap:butt;stroke-linejoin:miter;" /><path d="M 102.6,94.5 L 108.028,85.001" style="stroke:black;fill:none;stroke-width:2.0;stroke-dasharray:-;stroke-linecap:round;stroke-linejoin:round;" /><path d="M 110.608 80.486 L 110.528 86.43 L 105.527 83.572 Z" style="stroke:black;fill:black;stroke-linecap:butt;stroke-linejoin:miter;" /><path d="M 162.0,108.0 L 198,108 L 201,99 L 207,117 L 213,99 L 219,117 L 225,99 L 231,117 L 234,108 L 270,108" style="stroke:black;fill:none;stroke-width:2.0;stroke-dasharray:-;stroke-linecap:round;stroke-linejoin:round;" /><path d="M 270.0,108.0 L 270,54 L 270,-0" style="stroke:black;fill:none;stroke-width:2.0;stroke-dasharray:-;stroke-linecap:round;stroke-linejoin:round;" /><text x="-3.599999999999999" y="-11.0" dominant-baseline="central" fill="black" font-size="11" font-family="sans" text-anchor="end"><tspan x="-3.599999999999999" dy="11">Probe +</tspan></text><text x="108.0" y="-23.6" dominant-baseline="ideographic" fill="black" font-size="11" font-family="sans" text-anchor="middle"><tspan x="108.0" dy="11">1 kΩ / 10 W</tspan></text><text x="219.6" y="-11.0" dominant-baseline="central" fill="black" font-size="11" font-family="sans" text-anchor="start"><tspan x="219.6" dy="11">Probe −</tspan></text><text x="107.99999999999999" y="109.60000000000001" dominant-baseline="hanging" fill="black" font-size="11" font-family="sans" text-anchor="middle"><tspan x="107.99999999999999" dy="11">LED</tspan></text><text x="216.0" y="109.60000000000001" dominant-baseline="hanging" fill="black" font-size="11" font-family="sans" text-anchor="middle"><tspan x="216.0" dy="11">10 kΩ / 1 W</tspan></text><circle cx="54" cy="-0" r="2.7" style="stroke:black;fill:black;stroke-width:2.0;stroke-dasharray:-;" /><circle cx="162" cy="-0" r="2.7" style="stroke:black;fill:black;stroke-width:2.0;stroke-dasharray:-;" /></svg>