<svg xmlns="http://www.w3.org/2000/svg" xmlns:xlink="http://www.w3.org/1999/xlink" xml:lang="en" height="175.90999999999997pt" width="544.4659999999999pt" viewBox="-64.27 -54.21 544.4659999999999 175.90999999999997"><polygon points="371.7,-9 384.3,-0 371.7,9 " style="stroke:black;fill:none;stroke-width:2.0;stroke-dasharray:-;stroke-linecap:round;stroke-linejoin:round;" /><path d="M 0.0,-0.0 L 43.875,-0 M 64.125,-0 L 108,-0" style="stroke:black;fill:none;stroke-width:2.0;stroke-dasharray:-;stroke-linecap:round;stroke-linejoin:round;" /><path d="M 43.875,-13.5 L 43.875,13.5" style="stroke:black;fill:none;stroke-width:2.0;stroke-dasharray:-;stroke-linecap:round;stroke-linejoin:round;" /><path d="M 50.625,-6.75 L 50.625,6.75" style="stroke:black;fill:none;stroke-width:2.0;stroke-dasharray:-;stroke-linecap:round;stroke-linejoin:round;" /><path d="M 57.375,-13.5 L 57.375,13.5" style="stroke:black;fill:none;stroke-width:2.0;stroke-dasharray:-;stroke-linecap:round;stroke-linejoin:round;" /><path d="M 64.125,-6.75 L 64.125,6.75" style="stroke:black;fill:none;stroke-width:2.0;stroke-dasharray:-;stroke-linecap:round;stroke-linejoin:round;" /><path d="M 108.0,-0.0 L 144,-0 M 152.64,-3.6 L 172.8,-16.2 M 180,-0 L 216,-0" style="stroke:black;fill:none;stroke-width:2.0;stroke-dasharray:-;stroke-linecap:round;stroke-linejoin:round;" /><path d="M 216.0,-0.0 L 252,-0 L 255,-9 L 261,9 L 267,-9 L 273,9 L 279,-9 L 285,9 L 288,-0 L 324,-0" style="stroke:black;fill:none;stroke-width:2.0;stroke-dasharray:-;stroke-linecap:round;stroke-linejoin:round;" /><path d="M 324.0,-0.0 L 371.7,-0 M 384.3,-9 L 384.3,9 M 384.3,-0 L 432,-0" style="stroke:black;fill:none;stroke-width:2.0;stroke-dasharray:-;stroke-linecap:round;stroke-linejoin:round;" /><path d="M 380.7,-13.5 L 386.128,-22.999" style="stroke:black;fill:none;stroke-width:2.0;stroke-dasharray:-;stroke-linecap:round;stroke-linejoin:round;" /><path d="M 388.708 -27.514 L 388.628 -21.57 L 383.627 -24.428 Z" style="stroke:black;fill:black;stroke-linecap:butt;stroke-linejoin:miter;" /><path d="M 372.59999999999997,-13.5 L 378.028,-22.999" style="stroke:black;fill:none;stroke-width:2.0;stroke-dasharray:-;stroke-linecap:round;stroke-linejoin:round;" /><path d="M 380.608 -27.514 L 380.528 -21.57 L 375.527 -24.428 Z" style="stroke:black;fill:black;stroke-linecap:butt;stroke-linejoin:miter;" /><path d="M 432.0,-0.0 L 432,54 L 432,108" style="stroke:black;fill:none;stroke-width:2.0;stroke-dasharray:-;stroke-linecap:round;stroke-linejoin:round;" /><path d="M 432.0,108.0 L 216,108 L 0,108" style="stroke:black;fill:none;stroke-width:2.0;stroke-dasharray:-;stroke-linecap:round;stroke-linejoin:round;" /><path d="M 0.0,107.99999999999996 L 0,54 L 0,-0" style="stroke:black;fill:none;stroke-width:2.0;stroke-dasharray:-;stroke-linecap:round;stroke-linejoin:round;" /><text x="-7.199999999999998" y="-11.0" dominant-baseline="central" fill="black" font-size="11" font-family="sans" text-anchor="end"><tspan x="-7.199999999999998" dy="11">3 V (2×AA)</tspan></text><circle cx="148.32" cy="-0" r="4.32" style="stroke:black;fill:white;stroke-width:2.0;stroke-dasharray:-;" /><circle cx="175.68" cy="-0" r="4.32" style="stroke:black;fill:white;stroke-width:2.0;stroke-dasharray:-;" /><text x="162.0" y="-30.8" dominant-baseline="ideographic" fill="black" font-size="11" font-family="sans" text-anchor="middle"><tspan x="162.0" dy="11">SW (opt.)</tspan></text><text x="270.0" y="-23.6" dominant-baseline="ideographic" fill="black" font-size="11" font-family="sans" text-anchor="middle"><tspan x="270.0" dy="11">100–220 Ω</tspan></text><text x="378.0" y="-49.61" dominant-baseline="ideographic" fill="black" font-size="11" font-family="sans" text-anchor="middle"><tspan x="378.0" dy="11">LED</tspan></text><text x="435.59999999999997" y="-14.6" dominant-baseline="central" fill="black" font-size="11" font-family="sans" text-anchor="start"><tspan x="435.59999999999997" dy="11">Probe A</tspan></text><text x="-3.6000000000000005" y="100.59999999999995" dominant-baseline="central" fill="black" font-size="11" font-family="sans" text-anchor="end"><tspan x="-3.6000000000000005" dy="11">Probe B</tspan></text><circle cx="432" cy="-0" r="2.7" style="stroke:black;fill:black;stroke-width:2.0;stroke-dasharray:-;" /><circle cx="0" cy="108" r="2.7" style="stroke:black;fill:black;stroke-width:2.0;stroke-dasharray:-;" /></svg>